<svg width="36" height="36" viewBox="0 0 36 36" fill="none" xmlns="http://www.w3.org/2000/svg">
<g clip-path="url(#clip0_894_8795)">
<circle cx="18" cy="18" r="18" fill="#EBF2FC"/>
<g clip-path="url(#clip1_894_8795)">
<path d="M9.17766 23.4846C9.13796 23.7184 9.19278 23.9585 9.33007 24.152C9.46736 24.3455 9.67587 24.4765 9.90976 24.5162L12.4097 24.9412L9.97405 18.7929L9.17766 23.4846ZM12.5154 9.17772C12.2815 9.13802 12.0414 9.19285 11.8479 9.33014C11.6545 9.46743 11.5234 9.67595 11.4837 9.90983L11.0588 12.4097L17.2071 9.97412L12.5154 9.17772ZM23.4868 26.8223C23.7206 26.862 23.9607 26.8072 24.1542 26.6699C24.3476 26.5326 24.4786 26.3241 24.5184 26.0902L24.9433 23.5903L18.7928 26.0259L23.4868 26.8223ZM26.0902 11.4838L23.5902 11.0588L26.0258 17.2094L26.8223 12.5154C26.8619 12.2815 26.8071 12.0414 26.6698 11.848C26.5325 11.6545 26.324 11.5235 26.0902 11.4838Z" fill="#556DC2"/>
<path d="M21.9926 10.3647C21.9053 10.1441 21.7338 9.9672 21.5161 9.87299C21.2983 9.77878 21.052 9.77493 20.8314 9.86229L10.365 14.0073C10.2558 14.0506 10.1562 14.115 10.0718 14.1967C9.98743 14.2785 9.92 14.3761 9.87335 14.4839C9.8267 14.5917 9.80175 14.7077 9.79991 14.8251C9.79808 14.9426 9.8194 15.0593 9.86266 15.1685L14.0077 25.6349C14.051 25.7442 14.1153 25.8438 14.1971 25.9282C14.2788 26.0125 14.3764 26.08 14.4842 26.1266C14.5921 26.1733 14.708 26.1982 14.8255 26.2001C14.943 26.2019 15.0596 26.1806 15.1689 26.1373L25.6353 21.9923C25.8559 21.9049 26.0328 21.7335 26.127 21.5157C26.2212 21.298 26.225 21.0517 26.1377 20.8311L21.9926 10.3647ZM21.4479 17.9266C21.1292 18.8531 20.7135 19.7433 20.2079 20.5824C20.0684 20.82 19.8174 21.221 19.6508 21.4851C19.6026 21.5616 19.5314 21.6208 19.4474 21.654C19.3633 21.6873 19.2709 21.693 19.1834 21.6702C18.8812 21.5918 18.4236 21.4714 18.1593 21.3937C17.2162 21.1283 16.3038 20.7641 15.4372 20.307C14.8592 20.0114 14.3362 19.619 13.8908 19.1467C13.2868 18.4796 13.0095 17.7138 13.1862 16.811C13.2852 16.2813 13.5704 15.8044 13.9903 15.4666C14.4101 15.1288 14.937 14.9523 15.4756 14.9689C15.9042 14.9984 16.3241 15.104 16.7156 15.281C16.7824 15.3071 16.8566 15.3069 16.9232 15.2805C16.9899 15.2541 17.0441 15.2034 17.0749 15.1387C17.239 14.7417 17.4727 14.3772 17.765 14.0623C18.1462 13.6813 18.651 13.4493 19.1883 13.408C19.7256 13.3668 20.26 13.519 20.6948 13.8373C21.4418 14.3743 21.764 15.1224 21.7805 16.0221C21.7792 16.6713 21.6667 17.3155 21.4479 17.9266Z" fill="#2D7ABE"/>
<path d="M19.6427 15.4632C19.3777 15.2692 19.0521 15.1764 18.7247 15.2015C18.3972 15.2267 18.0896 15.3681 17.8573 15.6003C17.6792 15.7921 17.5368 16.0143 17.4368 16.2562C17.418 16.2957 17.385 16.3266 17.3443 16.3426C17.3037 16.3587 17.2585 16.3588 17.2178 16.3429C16.9793 16.2351 16.7234 16.1707 16.4622 16.1528C16.1339 16.1426 15.8129 16.2502 15.557 16.456C15.3012 16.6619 15.1274 16.9525 15.067 17.2753C15.0159 17.5296 15.0284 17.7925 15.1033 18.0408C15.1782 18.2891 15.3132 18.5151 15.4964 18.6987C15.7678 18.9865 16.0866 19.2257 16.4388 19.4058C16.9669 19.6843 17.5229 19.9063 18.0976 20.068C18.2587 20.1153 18.5375 20.1887 18.7217 20.2365C18.775 20.2504 18.8313 20.2469 18.8825 20.2267C18.9337 20.2064 18.9772 20.1703 19.0065 20.1237C19.108 19.9628 19.261 19.7184 19.346 19.5736C19.6541 19.0622 19.9074 18.5198 20.1016 17.9552C20.235 17.5827 20.3036 17.1902 20.3044 16.7946C20.3122 16.5354 20.2559 16.2782 20.1405 16.0459C20.025 15.8137 19.8541 15.6135 19.6427 15.4632Z" fill="#2D7ABE"/>
</g>
</g>
<defs>
<clipPath id="clip0_894_8795">
<rect width="36" height="36" fill="white"/>
</clipPath>
<clipPath id="clip1_894_8795">
<rect width="18" height="18" fill="white" transform="translate(9 9)"/>
</clipPath>
</defs>
</svg>
