<svg width="36" height="36" viewBox="0 0 36 36" fill="none" xmlns="http://www.w3.org/2000/svg">
<g clip-path="url(#clip0_819_9601)">
<circle cx="18" cy="18" r="18" fill="#EBF2FC"/>
<g clip-path="url(#clip1_819_9601)">
<path d="M17.2996 15.4115C16.7285 15.6478 16.2575 16.0658 15.8048 16.4869C15.7292 16.5572 15.6297 16.5963 15.5265 16.5963C15.4232 16.5963 15.3238 16.5572 15.2482 16.4869C14.7955 16.0658 14.3244 15.6478 13.7534 15.4115C13.041 15.1035 12.2419 15.0605 11.5006 15.2902C10.7592 15.5199 10.1245 16.0072 9.71102 16.664C8.99563 17.7791 8.96079 18.9516 9.41585 20.1651C9.76181 21.0337 10.2541 21.8366 10.8713 22.5389C11.7892 23.6104 12.8178 24.582 13.9399 25.4374C14.2526 25.6816 14.8015 26.0855 15.1645 26.3507C15.2696 26.4276 15.3963 26.469 15.5265 26.469C15.6567 26.469 15.7834 26.4276 15.8884 26.3507C16.2515 26.0855 16.8004 25.6816 17.1131 25.4374C18.2352 24.582 19.2637 23.6104 20.1817 22.5389C20.7989 21.8366 21.2912 21.0337 21.6371 20.1651C22.0922 18.9516 22.0573 17.7791 21.342 16.664C20.9285 16.0072 20.2937 15.5199 19.5524 15.2902C18.8111 15.0605 18.012 15.1035 17.2996 15.4115ZM17.6982 20.15C17.6417 20.2399 17.5532 20.3051 17.4506 20.3324C17.3479 20.3596 17.2387 20.347 17.145 20.297L16.2752 19.8328V22.3613C16.2755 22.5638 16.2344 22.7643 16.1546 22.9504C16.0748 23.1365 15.9579 23.3045 15.811 23.4439C15.6642 23.5833 15.4904 23.6914 15.3004 23.7614C15.1104 23.8315 14.9081 23.8621 14.7058 23.8513C14.3172 23.8313 13.9518 23.6602 13.6875 23.3747C13.4231 23.0891 13.2808 22.7116 13.2907 22.3226C13.3007 21.9336 13.4622 21.5639 13.7408 21.2922C14.0194 21.0205 14.3931 20.8684 14.7822 20.8683C14.9423 20.8678 15.1015 20.8935 15.2534 20.9444V18.1847C15.2534 18.1009 15.2784 18.019 15.3254 17.9496C15.3723 17.8801 15.439 17.8263 15.5167 17.7951C15.5945 17.7638 15.6798 17.7566 15.7618 17.7742C15.8437 17.7919 15.9185 17.8336 15.9765 17.8942L17.6459 19.6359C17.7107 19.7035 17.751 19.7908 17.7605 19.884C17.77 19.9771 17.7481 20.0708 17.6982 20.15Z" fill="#556DC2"/>
<path d="M25.7923 9.98954C25.35 9.65982 24.8044 9.49916 24.254 9.53658C23.7036 9.574 23.1847 9.80703 22.7911 10.1936C22.4892 10.5133 22.2467 10.8844 22.0751 11.2893C22.043 11.3553 21.987 11.4067 21.9186 11.4331C21.8501 11.4595 21.7742 11.459 21.706 11.4317C21.3069 11.2471 20.878 11.1352 20.4395 11.1013C19.8883 11.0794 19.3474 11.2553 18.9146 11.5974C18.4817 11.9395 18.1855 12.4251 18.0795 12.9664C18.0442 13.143 18.0263 13.3226 18.0259 13.5027C18.9468 13.3907 19.8806 13.5434 20.718 13.9427C21.5554 14.3421 22.2617 14.9717 22.7543 15.7579C23.1608 16.383 23.4317 17.0866 23.5493 17.823C23.7652 17.8834 23.9965 17.9461 24.1751 17.9942C24.2644 18.0183 24.3591 18.0133 24.4454 17.98C24.5318 17.9467 24.6052 17.8868 24.6552 17.8089C24.828 17.5401 25.0887 17.1318 25.2335 16.8899C25.7587 16.0354 26.1921 15.1279 26.5266 14.1823C26.7561 13.5587 26.8771 12.9003 26.8842 12.2357C26.8753 11.3145 26.5521 10.5459 25.7923 9.98954Z" fill="#2D7ABE"/>
</g>
</g>
<defs>
<clipPath id="clip0_819_9601">
<rect width="36" height="36" fill="white"/>
</clipPath>
<clipPath id="clip1_819_9601">
<rect width="18" height="18" fill="white" transform="translate(9 9)"/>
</clipPath>
</defs>
</svg>
