<svg width="36" height="36" viewBox="0 0 36 36" fill="none" xmlns="http://www.w3.org/2000/svg">
<g clip-path="url(#clip0_894_8858)">
<circle cx="18" cy="18" r="18" fill="#EBF2FC"/>
<g clip-path="url(#clip1_894_8858)">
<path d="M21.4357 13.4733H25.3622L20.9893 9.10034V13.0269C20.9893 13.1453 21.0363 13.2588 21.12 13.3425C21.2037 13.4262 21.3173 13.4733 21.4357 13.4733Z" fill="#2D7ABE"/>
<path d="M21.3255 14.6997C21.1203 14.6999 20.9171 14.6596 20.7275 14.5811C20.538 14.5027 20.3657 14.3876 20.2206 14.2426C20.0755 14.0975 19.9605 13.9252 19.882 13.7356C19.8036 13.5461 19.7633 13.3429 19.7634 13.1377V9.09857H12.1942C12.0767 9.09861 11.9605 9.12179 11.852 9.16679C11.7436 9.21178 11.645 9.27771 11.5621 9.3608C11.4791 9.44389 11.4133 9.54252 11.3685 9.65105C11.3236 9.75958 11.3006 9.87587 11.3008 9.9933V26.0076C11.3005 26.1251 11.3235 26.2414 11.3682 26.35C11.413 26.4586 11.4788 26.5573 11.5618 26.6404C11.6448 26.7235 11.7434 26.7894 11.8519 26.8344C11.9604 26.8793 12.0767 26.9024 12.1942 26.9024H24.4699C24.707 26.9021 24.9342 26.8076 25.1017 26.6399C25.2693 26.4721 25.3633 26.2447 25.3633 26.0076V14.6997H21.3255ZM16.0497 16.3739C16.212 16.1161 16.4611 15.9249 16.752 15.8348C17.043 15.7446 17.3566 15.7615 17.6362 15.8824C17.8553 15.987 18.0539 16.1299 18.2228 16.3044C18.2525 16.332 18.2915 16.3473 18.332 16.3473C18.3726 16.3473 18.4116 16.332 18.4412 16.3044C18.6101 16.1299 18.8088 15.987 19.0279 15.8824C19.3075 15.7615 19.6211 15.7446 19.912 15.8348C20.203 15.9249 20.4521 16.1161 20.6143 16.3739C20.7452 16.5757 20.8243 16.8067 20.8445 17.0464C20.8647 17.2861 20.8254 17.5271 20.7302 17.7479C20.5944 18.0888 20.4012 18.4039 20.159 18.6795C19.7987 19.1001 19.3951 19.4814 18.9547 19.8171C18.832 19.9129 18.6166 20.0714 18.4741 20.1755C18.4329 20.2057 18.3831 20.2219 18.332 20.2219C18.2809 20.2219 18.2312 20.2057 18.19 20.1755C18.0475 20.0714 17.8321 19.9129 17.7094 19.8171C17.269 19.4814 16.8653 19.1001 16.5051 18.6795C16.2628 18.4039 16.0697 18.0888 15.9339 17.7479C15.8386 17.5271 15.7993 17.2861 15.8195 17.0464C15.8398 16.8067 15.9188 16.5757 16.0497 16.3739ZM13.143 21.6965C13.1989 21.6402 13.2653 21.5956 13.3385 21.5652C13.4117 21.5347 13.4902 21.5191 13.5694 21.5191H17.729C17.8485 21.5192 17.9653 21.5547 18.0646 21.6211C18.1639 21.6875 18.2413 21.7819 18.2869 21.8924C18.3326 22.0028 18.3444 22.1243 18.321 22.2414C18.2976 22.3586 18.24 22.4662 18.1554 22.5506C18.0996 22.6069 18.0332 22.6516 17.96 22.682C17.8868 22.7125 17.8083 22.7281 17.729 22.7279H13.5694C13.4499 22.7278 13.3332 22.6924 13.2338 22.6259C13.1345 22.5595 13.0572 22.4651 13.0115 22.3547C12.9659 22.2443 12.954 22.1228 12.9774 22.0056C13.0008 21.8884 13.0585 21.7809 13.143 21.6965ZM15.7961 25.0019C15.7402 25.0582 15.6738 25.1028 15.6006 25.1332C15.5274 25.1637 15.4489 25.1793 15.3697 25.1793H13.5694C13.4093 25.1789 13.256 25.1151 13.1429 25.0018C13.0298 24.8885 12.9663 24.7349 12.9663 24.5749C12.9663 24.4148 13.0298 24.2613 13.1429 24.148C13.256 24.0347 13.4093 23.9708 13.5694 23.9705H15.3697C15.4892 23.9705 15.606 24.006 15.7053 24.0725C15.8046 24.1389 15.8819 24.2333 15.9276 24.3437C15.9732 24.4541 15.9851 24.5756 15.9617 24.6928C15.9383 24.8099 15.8806 24.9175 15.7961 25.0019ZM23.521 25.0019C23.4652 25.0583 23.3988 25.103 23.3256 25.1334C23.2524 25.1638 23.1739 25.1794 23.0946 25.1793H18.0254C17.8654 25.1789 17.712 25.1151 17.5989 25.0018C17.4859 24.8885 17.4224 24.7349 17.4224 24.5749C17.4224 24.4148 17.4859 24.2613 17.5989 24.148C17.712 24.0347 17.8654 23.9708 18.0254 23.9705H23.0946C23.2141 23.9705 23.3309 24.006 23.4302 24.0725C23.5295 24.1389 23.6069 24.2333 23.6525 24.3437C23.6982 24.4541 23.71 24.5756 23.6866 24.6928C23.6632 24.8099 23.6056 24.9175 23.521 25.0019ZM23.521 22.5506C23.4652 22.6069 23.3988 22.6516 23.3256 22.682C23.2524 22.7125 23.1739 22.7281 23.0946 22.7279H20.3834C20.2231 22.7279 20.0694 22.6642 19.956 22.5509C19.8427 22.4375 19.779 22.2838 19.779 22.1235C19.779 21.9632 19.8427 21.8095 19.956 21.6962C20.0694 21.5828 20.2231 21.5191 20.3834 21.5191H23.0946C23.2141 21.5192 23.3309 21.5547 23.4302 21.6211C23.5295 21.6875 23.6069 21.7819 23.6525 21.8924C23.6982 22.0028 23.71 22.1243 23.6866 22.2414C23.6632 22.3586 23.6056 22.4662 23.521 22.5506Z" fill="#556DC2"/>
</g>
</g>
<defs>
<clipPath id="clip0_894_8858">
<rect width="36" height="36" fill="white"/>
</clipPath>
<clipPath id="clip1_894_8858">
<rect width="18" height="18" fill="white" transform="translate(9.33203 9.00049)"/>
</clipPath>
</defs>
</svg>
