<svg width="36" height="36" viewBox="0 0 36 36" fill="none" xmlns="http://www.w3.org/2000/svg">
<g clip-path="url(#clip0_819_9588)">
<circle cx="18" cy="18" r="18" fill="#EBF2FC"/>
<g clip-path="url(#clip1_819_9588)">
<path d="M26.2128 14.9488C26.1807 14.8621 26.1194 14.7892 26.0395 14.7427C25.9596 14.6961 25.866 14.6788 25.7747 14.6936C24.7663 14.858 23.7775 14.9901 22.8358 15.0855C22.7804 15.0912 22.7268 15.1084 22.6785 15.136C22.6301 15.1636 22.5881 15.2011 22.5551 15.2459C22.522 15.2907 22.4988 15.342 22.4867 15.3964C22.4747 15.4508 22.4742 15.507 22.4852 15.5616C22.8128 17.1713 22.8128 18.8304 22.4852 20.4401C22.4741 20.4946 22.4746 20.5508 22.4866 20.6051C22.4985 20.6594 22.5217 20.7105 22.5546 20.7553C22.5875 20.8001 22.6294 20.8376 22.6777 20.8652C22.7259 20.8928 22.7794 20.9101 22.8347 20.9158C23.8388 21.021 24.8278 21.1527 25.7743 21.3081C25.7957 21.3115 25.8174 21.3132 25.839 21.3132C25.9204 21.3131 25.9999 21.2882 26.0667 21.2417C26.1335 21.1951 26.1845 21.1293 26.2128 21.0529C26.9421 19.0836 26.9421 16.9182 26.2128 14.9488ZM21.8512 13.3926C21.88 13.4679 21.9311 13.5327 21.9975 13.5784C22.064 13.624 22.1428 13.6485 22.2234 13.6485C22.2361 13.6485 22.2487 13.6478 22.2616 13.6466C23.1576 13.5613 23.9629 13.4647 24.723 13.3517C24.7916 13.3415 24.8563 13.3136 24.9109 13.2708C24.9654 13.2279 25.0078 13.1716 25.0339 13.1074C25.0601 13.0432 25.069 12.9733 25.0599 12.9045C25.0508 12.8358 25.0239 12.7706 24.9819 12.7155C23.8968 11.2833 22.3986 10.2183 20.6894 9.66419C20.611 9.63867 20.5266 9.63808 20.4478 9.66249C20.3691 9.68691 20.2998 9.73513 20.2496 9.80053C20.1993 9.86592 20.1706 9.94527 20.1673 10.0277C20.164 10.1101 20.1863 10.1915 20.2312 10.2606C20.8784 11.2456 21.4213 12.2952 21.8512 13.3926ZM24.7211 22.6493C23.8727 22.5277 23.0447 22.4296 22.2598 22.3579C22.1732 22.3492 22.0862 22.3694 22.0123 22.4153C21.9384 22.4613 21.8818 22.5304 21.8513 22.6119C21.4207 23.7079 20.8777 24.7564 20.2312 25.7407C20.1922 25.8009 20.1701 25.8705 20.1673 25.9423C20.1645 26.014 20.1811 26.0851 20.2154 26.1482C20.2497 26.2112 20.3003 26.2639 20.362 26.3006C20.4237 26.3373 20.4941 26.3566 20.5659 26.3566C20.6076 26.3567 20.6491 26.3501 20.6888 26.3372C22.3989 25.7844 23.8976 24.7192 24.9819 23.2859C25.024 23.2306 25.0508 23.1652 25.0599 23.0963C25.0689 23.0274 25.0598 22.9573 25.0335 22.893C25.0071 22.8287 24.9644 22.7724 24.9096 22.7297C24.8549 22.6869 24.7899 22.6592 24.7211 22.6493ZM15.8501 13.6193C15.8845 13.6747 15.9321 13.7207 15.9885 13.7535C16.0449 13.7862 16.1084 13.8046 16.1736 13.8071C16.7792 13.8301 17.3897 13.8418 18.0004 13.8418C18.6113 13.8418 19.2224 13.8301 19.8297 13.8071C19.895 13.8047 19.9587 13.7862 20.0152 13.7534C20.0717 13.7205 20.1193 13.6743 20.1538 13.6188C20.1882 13.5633 20.2085 13.5002 20.2128 13.435C20.2172 13.3698 20.2054 13.3045 20.1786 13.2449C19.6718 12.138 19.05 11.0875 18.3234 10.1107C18.2846 10.0627 18.2356 10.0239 18.18 9.99735C18.1244 9.97076 18.0635 9.95695 18.0018 9.95695C17.9401 9.95695 17.8792 9.97076 17.8236 9.99735C17.7679 10.0239 17.7189 10.0627 17.6802 10.1107C16.9521 11.087 16.3301 12.138 15.8245 13.2461C15.798 13.3056 15.7864 13.3708 15.7909 13.4359C15.7953 13.5009 15.8156 13.5639 15.8501 13.6193ZM14.1522 22.6119C14.1212 22.5308 14.0645 22.4621 13.9908 22.4162C13.9171 22.3704 13.8304 22.3499 13.7439 22.3579C12.9542 22.4296 12.1262 22.5277 11.2823 22.6493C11.2135 22.6592 11.1485 22.687 11.0938 22.7297C11.039 22.7725 10.9964 22.8288 10.97 22.8931C10.9437 22.9574 10.9346 23.0274 10.9437 23.0963C10.9527 23.1652 10.9796 23.2306 11.0216 23.2859C12.1047 24.7188 13.6022 25.784 15.311 26.3372C15.3895 26.3626 15.4738 26.3631 15.5525 26.3386C15.6312 26.3141 15.7004 26.2659 15.7505 26.2004C15.8007 26.1351 15.8294 26.0558 15.8326 25.9734C15.8359 25.8911 15.8135 25.8098 15.7686 25.7407C15.1233 24.7563 14.5816 23.7078 14.1522 22.6119ZM11.2805 13.3517C12.0476 13.4654 12.8527 13.562 13.7422 13.6466C13.7548 13.648 13.7675 13.6487 13.7802 13.6485C13.8608 13.6485 13.9396 13.624 14.006 13.5783C14.0725 13.5326 14.1235 13.4679 14.1524 13.3926C14.582 12.2956 15.1238 11.2459 15.769 10.2603C15.8138 10.191 15.836 10.1096 15.8327 10.0272C15.8293 9.94485 15.8005 9.86553 15.7502 9.80019C15.6999 9.73485 15.6306 9.6867 15.5518 9.66234C15.4731 9.63798 15.3887 9.63863 15.3103 9.66418C13.6025 10.2192 12.1058 11.2841 11.0216 12.7155C10.9797 12.7706 10.9528 12.8358 10.9437 12.9045C10.9346 12.9733 10.9435 13.0432 10.9696 13.1074C10.9958 13.1716 11.0382 13.2279 11.0927 13.2707C11.1472 13.3136 11.212 13.3415 11.2805 13.3517ZM13.449 20.7551C13.4819 20.7103 13.5051 20.6591 13.517 20.6048C13.529 20.5505 13.5294 20.4944 13.5184 20.4399C13.1907 18.8303 13.1907 17.1711 13.5184 15.5614C13.5294 15.5068 13.5289 15.4505 13.5168 15.3961C13.5048 15.3417 13.4815 15.2905 13.4485 15.2456C13.4154 15.2008 13.3733 15.1634 13.325 15.1358C13.2766 15.1081 13.2229 15.091 13.1675 15.0853C12.2222 14.9895 11.2334 14.8578 10.2288 14.6934C10.1377 14.679 10.0443 14.6964 9.96453 14.7427C9.88472 14.789 9.82335 14.8615 9.79074 14.9478C9.05667 16.917 9.05673 19.0848 9.79093 21.0539C9.81942 21.13 9.87043 21.1955 9.93715 21.2418C10.0039 21.2881 10.0831 21.3129 10.1643 21.313C10.186 21.313 10.2076 21.3113 10.229 21.3079C11.1761 21.1525 12.1651 21.0208 13.1689 20.9156C13.2242 20.9099 13.2777 20.8926 13.3259 20.865C13.3742 20.8373 13.4161 20.7999 13.449 20.7551ZM20.1541 22.3867C20.1198 22.3311 20.0725 22.2849 20.0162 22.2519C19.9598 22.219 19.8963 22.2004 19.8311 22.1977C18.6156 22.1479 17.3845 22.1479 16.1724 22.1977C16.1073 22.2004 16.0438 22.2191 15.9875 22.252C15.9312 22.2849 15.8838 22.3311 15.8495 22.3866C15.8152 22.4421 15.7951 22.5051 15.7908 22.5702C15.7865 22.6353 15.7982 22.7004 15.8249 22.7599C16.3312 23.8663 16.9532 24.9159 17.6808 25.8911C17.7179 25.9413 17.7662 25.9821 17.822 26.0103C17.8777 26.0384 17.9393 26.0531 18.0018 26.0532H18.0022C18.0647 26.0531 18.1264 26.0383 18.1822 26.01C18.238 25.9818 18.2864 25.9407 18.3234 25.8903C19.0493 24.9144 19.6711 23.8653 20.1786 22.7599C20.2054 22.7005 20.2172 22.6353 20.2129 22.5703C20.2086 22.5052 20.1884 22.4421 20.1541 22.3867Z" fill="#556DC2"/>
<path d="M18.9329 15.1691C18.6394 15.308 18.3737 15.4995 18.1491 15.7341C18.1088 15.7706 18.0563 15.7908 18.0019 15.7908C17.9475 15.7908 17.8951 15.7706 17.8547 15.7341C17.6309 15.4986 17.3651 15.307 17.0709 15.1691C16.6972 15.0081 16.2782 14.9857 15.8895 15.1061C15.5007 15.2264 15.1677 15.4816 14.9503 15.8256C14.5763 16.4105 14.5564 17.0272 14.7951 17.6638C14.9787 18.1184 15.2369 18.5393 15.559 18.9091C16.0416 19.4706 16.5817 19.98 17.1704 20.429C17.3335 20.5563 17.62 20.7671 17.8109 20.9064C17.8663 20.9471 17.9332 20.9691 18.0019 20.9691C18.0706 20.9691 18.1376 20.9471 18.1929 20.9064C18.3839 20.7671 18.6703 20.5563 18.8335 20.429C19.4222 19.98 19.9623 19.4706 20.4448 18.9091C20.7669 18.5393 21.0251 18.1184 21.2087 17.6638C21.4475 17.0272 21.4276 16.4105 21.0536 15.8256C20.8364 15.4814 20.5034 15.226 20.1145 15.1057C19.7257 14.9853 19.3066 15.0078 18.9329 15.1691Z" fill="#2D7ABE"/>
</g>
</g>
<defs>
<clipPath id="clip0_819_9588">
<rect width="36" height="36" fill="white"/>
</clipPath>
<clipPath id="clip1_819_9588">
<rect width="18" height="18" fill="white" transform="translate(9 9)"/>
</clipPath>
</defs>
</svg>
