<svg width="36" height="36" viewBox="0 0 36 36" fill="none" xmlns="http://www.w3.org/2000/svg">
<circle cx="18" cy="18" r="18" fill="#EBF2FC"/>
<g clip-path="url(#clip0_819_9560)">
<path d="M24.1618 9.23633H11.8384C11.1259 9.23704 10.4427 9.52029 9.93871 10.024C9.43473 10.5276 9.15106 11.2106 9.1499 11.9231V14.0974C9.14965 14.233 9.20306 14.3632 9.29847 14.4595C9.39387 14.5559 9.52353 14.6105 9.65912 14.6116L13.4984 14.6418V26.25C13.4984 26.3174 13.5118 26.3842 13.5376 26.4465C13.5635 26.5087 13.6014 26.5653 13.6492 26.6129C13.697 26.6605 13.7536 26.6982 13.816 26.7239C13.8784 26.7496 13.9452 26.7627 14.0126 26.7625H26.3361C26.4722 26.7626 26.6028 26.7087 26.6992 26.6126C26.7956 26.5165 26.8499 26.3861 26.8503 26.25V11.9231C26.8491 11.2106 26.5655 10.5276 26.0615 10.024C25.5575 9.52029 24.8743 9.23704 24.1618 9.23633ZM25.321 25.2332H15.0277V11.9231C15.0273 11.5276 14.9529 11.1355 14.8083 10.7673H24.1618C24.4687 10.7673 24.7631 10.8889 24.9804 11.1056C25.1977 11.3222 25.3202 11.6163 25.321 11.9231L25.321 25.2332Z" fill="#556DC2"/>
<path d="M20.3276 18.0594C20.4814 17.947 20.7139 17.776 20.8464 17.6725C21.3217 17.3102 21.7574 16.8986 22.1463 16.4447C22.4077 16.1472 22.6162 15.8071 22.7628 15.4392C22.8656 15.2008 22.908 14.9407 22.8862 14.682C22.8644 14.4233 22.779 14.174 22.6377 13.9561C22.4626 13.6779 22.1937 13.4715 21.8797 13.3742C21.5657 13.2769 21.2272 13.2951 20.9254 13.4256C20.6889 13.5385 20.4745 13.6928 20.2922 13.8811C20.2602 13.9109 20.2181 13.9275 20.1743 13.9275C20.1306 13.9275 20.0885 13.9109 20.0565 13.8811C19.8742 13.6928 19.6597 13.5385 19.4232 13.4256C19.1215 13.2951 18.783 13.2769 18.469 13.3742C18.1549 13.4715 17.8861 13.6779 17.7109 13.9561C17.5696 14.174 17.4843 14.4233 17.4625 14.682C17.4407 14.9407 17.483 15.2008 17.5859 15.4392C17.7324 15.8071 17.9409 16.1472 18.2024 16.4447C18.5912 16.8986 19.0269 17.3102 19.5022 17.6725C19.6347 17.776 19.8672 17.947 20.021 18.0594C20.0655 18.0919 20.1192 18.1095 20.1743 18.1095C20.2295 18.1095 20.2832 18.0919 20.3276 18.0594ZM18.092 19.4227H16.9383C16.8697 19.4226 16.8016 19.436 16.7381 19.4622C16.6747 19.4884 16.617 19.5269 16.5684 19.5754C16.5198 19.6239 16.4812 19.6816 16.4549 19.745C16.4286 19.8085 16.415 19.8765 16.415 19.9451C16.415 20.0138 16.4286 20.0818 16.4549 20.1453C16.4812 20.2087 16.5198 20.2663 16.5684 20.3149C16.617 20.3634 16.6747 20.4019 16.7381 20.4281C16.8016 20.4543 16.8697 20.4677 16.9383 20.4676H18.092C18.1607 20.4677 18.2287 20.4543 18.2922 20.4281C18.3557 20.4019 18.4134 20.3634 18.462 20.3149C18.5106 20.2663 18.5491 20.2087 18.5754 20.1453C18.6017 20.0818 18.6153 20.0138 18.6153 19.9451C18.6153 19.8765 18.6017 19.8085 18.5754 19.745C18.5491 19.6816 18.5106 19.6239 18.462 19.5754C18.4134 19.5269 18.3557 19.4884 18.2922 19.4622C18.2287 19.436 18.1607 19.4226 18.092 19.4227ZM23.4103 19.4227H20.2257C20.157 19.4226 20.089 19.436 20.0255 19.4622C19.962 19.4884 19.9043 19.5269 19.8557 19.5754C19.8071 19.6239 19.7685 19.6816 19.7422 19.745C19.7159 19.8085 19.7024 19.8765 19.7024 19.9451C19.7024 20.0138 19.7159 20.0818 19.7422 20.1453C19.7685 20.2087 19.8071 20.2663 19.8557 20.3149C19.9043 20.3634 19.962 20.4019 20.0255 20.4281C20.089 20.4543 20.157 20.4677 20.2257 20.4676H23.4103C23.479 20.4677 23.547 20.4543 23.6105 20.4281C23.674 20.4019 23.7317 20.3634 23.7803 20.3149C23.8289 20.2663 23.8675 20.2087 23.8938 20.1453C23.9201 20.0818 23.9336 20.0138 23.9336 19.9451C23.9336 19.8765 23.9201 19.8085 23.8938 19.745C23.8675 19.6816 23.8289 19.6239 23.7803 19.5754C23.7317 19.5269 23.674 19.4884 23.6105 19.4622C23.547 19.436 23.479 19.4226 23.4103 19.4227ZM18.092 21.7808H16.9383C16.8697 21.7806 16.8016 21.7941 16.7381 21.8203C16.6747 21.8465 16.617 21.8849 16.5684 21.9335C16.5198 21.982 16.4812 22.0396 16.4549 22.1031C16.4286 22.1665 16.415 22.2345 16.415 22.3032C16.415 22.3719 16.4286 22.4399 16.4549 22.5033C16.4812 22.5668 16.5198 22.6244 16.5684 22.6729C16.617 22.7214 16.6747 22.7599 16.7381 22.7861C16.8016 22.8123 16.8697 22.8257 16.9383 22.8256H18.092C18.1607 22.8257 18.2287 22.8123 18.2922 22.7861C18.3557 22.7599 18.4134 22.7214 18.462 22.6729C18.5106 22.6244 18.5491 22.5668 18.5754 22.5033C18.6017 22.4399 18.6153 22.3719 18.6153 22.3032C18.6153 22.2345 18.6017 22.1665 18.5754 22.1031C18.5491 22.0396 18.5106 21.982 18.462 21.9335C18.4134 21.8849 18.3557 21.8465 18.2922 21.8203C18.2287 21.7941 18.1607 21.7806 18.092 21.7808ZM23.4103 21.7808H20.2257C20.157 21.7806 20.089 21.7941 20.0255 21.8203C19.962 21.8465 19.9043 21.8849 19.8557 21.9335C19.8071 21.982 19.7685 22.0396 19.7422 22.1031C19.7159 22.1665 19.7024 22.2345 19.7024 22.3032C19.7024 22.3719 19.7159 22.4399 19.7422 22.5033C19.7685 22.5668 19.8071 22.6244 19.8557 22.6729C19.9043 22.7214 19.962 22.7599 20.0255 22.7861C20.089 22.8123 20.157 22.8257 20.2257 22.8256H23.4103C23.479 22.8257 23.547 22.8123 23.6105 22.7861C23.674 22.7599 23.7317 22.7214 23.7803 22.6729C23.8289 22.6244 23.8675 22.5668 23.8938 22.5033C23.9201 22.4399 23.9336 22.3719 23.9336 22.3032C23.9336 22.2345 23.9201 22.1665 23.8938 22.1031C23.8675 22.0396 23.8289 21.982 23.7803 21.9335C23.7317 21.8849 23.674 21.8465 23.6105 21.8203C23.547 21.7941 23.479 21.7806 23.4103 21.7808Z" fill="#556DC2"/>
</g>
<defs>
<clipPath id="clip0_819_9560">
<rect width="18" height="18" fill="white" transform="translate(9 9)"/>
</clipPath>
</defs>
</svg>
