<svg width="36" height="36" viewBox="0 0 36 36" fill="none" xmlns="http://www.w3.org/2000/svg">
<g clip-path="url(#clip0_894_8811)">
<circle cx="18" cy="18" r="18" fill="#EBF2FC"/>
<path d="M17.8818 15.8931C18.0581 15.7645 18.3252 15.5682 18.4777 15.4496C19.0232 15.0338 19.5232 14.5615 19.9695 14.0405C20.2695 13.6991 20.5088 13.3088 20.677 12.8866C20.8982 12.2966 20.8813 11.7266 20.5335 11.1845C20.3325 10.8652 20.0239 10.6283 19.6635 10.5167C19.3031 10.405 18.9147 10.4259 18.5684 10.5757C18.2967 10.705 18.0504 10.8819 17.8409 11.0978C17.8042 11.1319 17.756 11.1509 17.7059 11.1509C17.6558 11.1509 17.6075 11.1319 17.5708 11.0978C17.3615 10.8821 17.1156 10.7053 16.8444 10.5757C16.4981 10.4259 16.1096 10.405 15.7492 10.5167C15.3888 10.6283 15.0803 10.8652 14.8793 11.1845C14.5315 11.7266 14.5145 12.2966 14.7357 12.8866C14.9039 13.3088 15.1432 13.6991 15.4433 14.0406C15.8895 14.5615 16.3896 15.0338 16.9351 15.4496C17.0865 15.5682 17.3536 15.7645 17.53 15.8931C17.581 15.9305 17.6426 15.9506 17.7059 15.9506C17.7691 15.9506 17.8307 15.9305 17.8818 15.8931Z" fill="#2D7ABE"/>
<path d="M16.7138 22.7357C16.5601 22.5209 16.3508 22.3518 16.1085 22.2466C15.8178 22.12 15.5181 22.015 15.2119 21.9326C15.1351 21.9122 15.0537 21.9182 14.9807 21.9497C14.9077 21.9813 14.8475 22.0364 14.8097 22.1063C14.6485 22.3899 14.4149 22.6258 14.1329 22.7898C13.8509 22.9539 13.5305 23.0403 13.2042 23.0403C12.878 23.0403 12.5575 22.9539 12.2755 22.7898C11.9935 22.6258 11.76 22.3899 11.5988 22.1063C11.5613 22.0365 11.5013 21.9813 11.4285 21.9498C11.3558 21.9183 11.2745 21.9122 11.1979 21.9326C10.8912 22.0148 10.5911 22.1198 10.3 22.2466C10.0944 22.3367 9.91214 22.4724 9.76696 22.6435C9.62178 22.8147 9.51753 23.0166 9.46214 23.2341C9.29136 23.8882 9.20338 24.5611 9.20025 25.2371C9.19946 25.2781 9.20686 25.319 9.22201 25.3571C9.23716 25.3953 9.25976 25.4301 9.28849 25.4594C9.31722 25.4888 9.35151 25.5121 9.38935 25.5281C9.42719 25.5441 9.46784 25.5523 9.50891 25.5524H16.3223C16.2876 25.4295 16.2727 25.3019 16.2782 25.1743C16.3241 24.3468 16.4704 23.5279 16.7138 22.7357ZM26.3243 22.7317C26.2684 22.5511 26.1515 22.3954 25.9937 22.2912C25.4165 21.9157 24.7742 21.6513 24.0999 21.5117C23.7756 22.0797 23.3215 22.563 22.7748 22.922C22.5388 23.0841 22.2591 23.1708 21.9728 23.1708C21.6864 23.1708 21.4068 23.0841 21.1707 22.922C20.6242 22.5628 20.1702 22.0796 19.8457 21.5117C19.1713 21.6513 18.529 21.9157 17.9518 22.2912C17.7944 22.3958 17.6776 22.5513 17.6213 22.7317C17.358 23.5356 17.1984 24.3698 17.1462 25.2141C17.1445 25.2578 17.1516 25.3015 17.1671 25.3424C17.1826 25.3833 17.2063 25.4207 17.2366 25.4522C17.267 25.4838 17.3034 25.5088 17.3437 25.5259C17.384 25.543 17.4274 25.5518 17.4712 25.5517H26.4751C26.5188 25.5517 26.5621 25.5429 26.6023 25.5258C26.6426 25.5086 26.6789 25.4836 26.7092 25.452C26.7395 25.4205 26.7631 25.3831 26.7786 25.3422C26.794 25.3014 26.8011 25.2578 26.7993 25.2141C26.7478 24.3697 26.5882 23.5355 26.3243 22.7317Z" fill="#556DC2"/>
<path d="M20.6392 15.6901C20.5982 15.7381 20.5463 15.7755 20.4877 15.799C20.4292 15.8225 20.3658 15.8316 20.3031 15.8253C19.9791 15.7972 19.3594 15.897 19.096 16.98C19.096 16.98 18.8864 17.8924 19.2057 18.1983C19.2052 18.2201 19.2041 18.2417 19.2041 18.2637C19.2052 18.4971 19.2318 18.7297 19.2832 18.9573C19.4026 19.4762 19.6348 19.9624 19.9633 20.3814C20.1555 20.6285 20.3608 20.865 20.5785 21.09C20.8408 21.5484 21.2084 21.9379 21.6511 22.2261C21.7455 22.2915 21.8576 22.3266 21.9725 22.3266C22.0874 22.3266 22.1996 22.2915 22.294 22.2261C22.7368 21.9377 23.1046 21.5481 23.3669 21.0894C23.5753 20.8894 23.7686 20.6742 23.9451 20.4456C24.2658 20.0401 24.5002 19.5734 24.6339 19.0741C24.7031 18.8095 24.7391 18.5372 24.7408 18.2637C24.7407 18.0987 24.7257 17.9341 24.6959 17.7718C24.7601 17.767 24.8252 17.7617 24.891 17.7559C24.9214 17.7532 24.9505 17.7419 24.9748 17.7234C24.9991 17.7049 25.0178 17.68 25.0285 17.6514C25.0393 17.6228 25.0417 17.5917 25.0356 17.5618C25.0295 17.5318 25.0151 17.5042 24.994 17.4821L24.5071 16.9736L24.8557 16.8683C24.8862 16.8591 24.9133 16.8411 24.9336 16.8166C24.954 16.792 24.9666 16.7621 24.97 16.7304C24.9734 16.6987 24.9674 16.6667 24.9527 16.6384C24.938 16.6101 24.9153 16.5868 24.8874 16.5714L24.1019 16.136L24.659 16.0637C24.6932 16.0592 24.7251 16.044 24.7501 16.0201C24.7751 15.9963 24.7918 15.9651 24.7978 15.9311C24.8038 15.897 24.7988 15.862 24.7835 15.8311C24.7682 15.8001 24.7434 15.7748 24.7128 15.7589C23.8099 15.2887 21.7099 14.4052 20.6392 15.6901ZM22.8636 19.8085C22.8401 20.0284 22.736 20.2319 22.5715 20.3798C22.407 20.5276 22.1936 20.6094 21.9725 20.6094C21.7513 20.6094 21.5379 20.5276 21.3734 20.3798C21.2089 20.2319 21.1048 20.0284 21.0813 19.8085C21.0776 19.7853 21.079 19.7616 21.0853 19.7391C21.0917 19.7165 21.1029 19.6955 21.1182 19.6777C21.1334 19.6599 21.1524 19.6456 21.1738 19.6359C21.1951 19.6261 21.2183 19.6212 21.2418 19.6213H22.7031C22.7266 19.6212 22.7498 19.6261 22.7712 19.6359C22.7925 19.6456 22.8115 19.6599 22.8267 19.6777C22.842 19.6955 22.8532 19.7165 22.8596 19.7391C22.8659 19.7616 22.8673 19.7853 22.8636 19.8085ZM21.2773 17.1373C21.7126 17.4489 22.5221 17.8012 23.9563 17.8014C23.9929 17.9527 24.0114 18.1079 24.0114 18.2637C24.0106 18.4271 23.9932 18.59 23.9595 18.75C23.8917 19.0355 23.7698 19.3055 23.6005 19.5453L23.5989 19.5371C23.575 19.4253 23.5275 19.3199 23.4594 19.228C23.3913 19.1362 23.3044 19.0599 23.2043 19.0045C22.8325 18.7805 22.4066 18.6622 21.9725 18.6622C21.5384 18.6622 21.1125 18.7805 20.7407 19.0045C20.6407 19.06 20.5537 19.1362 20.4857 19.228C20.4176 19.3199 20.37 19.4253 20.3461 19.5371L20.3445 19.5455C20.1751 19.3057 20.0532 19.0357 19.9854 18.75C19.9517 18.5901 19.9344 18.4271 19.9336 18.2637C19.9336 18.2106 19.9363 18.1584 19.9403 18.1066C20.2687 17.9264 20.5284 17.6427 20.6788 17.2996C20.7026 17.2451 20.7384 17.1967 20.7835 17.1578C20.8286 17.119 20.8818 17.0908 20.9392 17.0752C20.9966 17.0596 21.0568 17.0571 21.1153 17.0679C21.1738 17.0786 21.2292 17.1024 21.2773 17.1373ZM11.2239 20.9711C11.166 20.6185 11.1333 20.2621 11.126 19.9048C11.1257 19.8807 11.1331 19.8571 11.1472 19.8376C11.1613 19.818 11.1813 19.8035 11.2043 19.7962C11.2272 19.789 11.2519 19.7893 11.2747 19.7971C11.2975 19.805 11.3172 19.82 11.3307 19.8399C11.7707 20.4719 12.412 20.9331 13.129 20.9331C13.8817 20.9331 14.5515 20.4245 14.9924 19.7434C15.0061 19.723 15.026 19.7077 15.0492 19.6998C15.0724 19.6918 15.0975 19.6917 15.1208 19.6995C15.144 19.7072 15.1641 19.7223 15.178 19.7425C15.1918 19.7628 15.1986 19.787 15.1974 19.8114C15.1742 20.2745 15.1179 20.7384 15.0665 21.0917C15.0601 21.1365 15.0683 21.1822 15.0899 21.2221C15.1115 21.2619 15.1453 21.2938 15.1863 21.313C15.2274 21.3322 15.2735 21.3377 15.3179 21.3287C15.3623 21.3196 15.4027 21.2966 15.433 21.2629C16.0666 20.5687 17.0477 19.1048 16.4035 17.168C15.605 14.766 12.1451 14.2022 11.276 16.3984C10.2379 16.3004 8.76127 18.6136 10.8538 21.1417C10.8837 21.1771 10.9243 21.2017 10.9694 21.2118C11.0146 21.2219 11.0618 21.2168 11.1039 21.1975C11.1459 21.1781 11.1804 21.1455 11.2021 21.1046C11.2238 21.0637 11.2314 21.0168 11.2239 20.9711ZM11.9463 17.6178C11.9442 17.5818 11.9509 17.5458 11.9657 17.513C11.9805 17.4801 12.0031 17.4513 12.0314 17.4291C12.0598 17.4068 12.0931 17.3917 12.1285 17.3851C12.164 17.3785 12.2005 17.3805 12.2349 17.3911C13.0151 17.6208 13.8402 17.6532 14.6359 17.4853C14.6919 17.4737 14.7499 17.4766 14.8044 17.4937C14.8589 17.5108 14.9081 17.5416 14.9474 17.5831C14.9866 17.6246 15.0146 17.6755 15.0287 17.7308C15.0428 17.7862 15.0424 17.8443 15.0277 17.8995C14.8346 18.6032 14.3993 19.7888 13.4892 20.1692C12.61 20.5367 11.7029 19.0451 11.7029 19.0451C11.8835 18.5918 11.9665 18.1054 11.9463 17.6178Z" fill="#556DC2"/>
</g>
<defs>
<clipPath id="clip0_894_8811">
<rect width="36" height="36" fill="white"/>
</clipPath>
</defs>
</svg>
