<svg width="36" height="36" viewBox="0 0 36 36" fill="none" xmlns="http://www.w3.org/2000/svg">
<g clip-path="url(#clip0_894_8842)">
<circle cx="18" cy="18" r="18" fill="#EBF2FC"/>
<g clip-path="url(#clip1_894_8842)">
<path d="M26.3216 9.63355H9.67921C9.6051 9.63343 9.5317 9.64793 9.46319 9.6762C9.39468 9.70446 9.33242 9.74596 9.27995 9.7983C9.22749 9.85064 9.18585 9.91281 9.15742 9.98125C9.12899 10.0497 9.11432 10.1231 9.11426 10.1972V22.4144C9.11461 22.564 9.17429 22.7074 9.2802 22.8131C9.38611 22.9187 9.52961 22.9781 9.67921 22.9781H16.2562L16.0657 23.8628C16.0419 23.9774 15.9927 24.0851 15.9217 24.1781C15.8506 24.2711 15.7596 24.3468 15.6553 24.3998L14.1043 25.1939C14.032 25.2308 13.9729 25.2891 13.9349 25.3608C13.897 25.4324 13.882 25.5141 13.892 25.5946C13.9021 25.6751 13.9366 25.7505 13.9911 25.8107C14.0455 25.8708 14.1171 25.9128 14.1962 25.9308C16.6977 26.5117 19.2991 26.5117 21.8005 25.9308C21.8795 25.9128 21.9511 25.8709 22.0055 25.8109C22.0599 25.751 22.0947 25.6757 22.105 25.5954C22.1153 25.515 22.1007 25.4335 22.0632 25.3617C22.0257 25.2899 21.967 25.2313 21.8951 25.1939L20.3388 24.3998C20.2356 24.3456 20.1454 24.2694 20.0748 24.1767C20.0041 24.0839 19.9546 23.9768 19.9298 23.8628L19.7392 22.9781H26.3162C26.4662 22.9782 26.6102 22.9191 26.7168 22.8135C26.8234 22.7079 26.8839 22.5645 26.8852 22.4144V10.1972C26.8851 10.0477 26.8257 9.90438 26.72 9.79869C26.6144 9.693 26.471 9.6336 26.3216 9.63355ZM18.0004 22.5823C17.8275 22.5827 17.6583 22.5318 17.5144 22.436C17.3705 22.3401 17.2582 22.2038 17.1918 22.0441C17.1255 21.8844 17.108 21.7086 17.1417 21.539C17.1753 21.3694 17.2585 21.2136 17.3808 21.0913C17.5031 20.969 17.6589 20.8858 17.8285 20.8522C17.9981 20.8185 18.1739 20.836 18.3336 20.9024C18.4932 20.9687 18.6296 21.081 18.7254 21.2249C18.8213 21.3688 18.8722 21.538 18.8718 21.7109C18.8714 21.9419 18.7794 22.1633 18.6161 22.3266C18.4527 22.4899 18.2314 22.5819 18.0004 22.5823ZM25.4355 19.8508C25.3349 19.9507 25.1988 20.0067 25.0571 20.0067H10.981C10.9108 20.0069 10.8413 19.9932 10.7763 19.9665C10.7114 19.9398 10.6524 19.9005 10.6027 19.8509C10.553 19.8014 10.5135 19.7425 10.4866 19.6776C10.4597 19.6128 10.4459 19.5433 10.4459 19.4731C10.4459 19.4028 10.4597 19.3333 10.4866 19.2685C10.5135 19.2036 10.553 19.1447 10.6027 19.0952C10.6524 19.0456 10.7114 19.0063 10.7763 18.9796C10.8413 18.9529 10.9108 18.9392 10.981 18.9394H16.7172C15.9489 18.3434 15.2433 17.6706 14.6114 16.9316C14.1622 16.4204 13.804 15.8361 13.5522 15.2039C13.2209 14.3206 13.2463 13.4672 13.767 12.6556C14.0679 12.1775 14.5299 11.8229 15.0695 11.6557C15.6091 11.4885 16.1907 11.5198 16.7092 11.744C17.1155 11.9381 17.484 12.2031 17.7972 12.5267C17.8522 12.5779 17.9246 12.6063 17.9997 12.6063C18.0749 12.6063 18.1472 12.5779 18.2023 12.5267C18.5155 12.2031 18.8839 11.9381 19.2903 11.744C19.8088 11.5198 20.3904 11.4885 20.93 11.6557C21.4695 11.8229 21.9315 12.1775 22.2325 12.6556C22.7532 13.4672 22.7785 14.3206 22.4473 15.2039C22.1955 15.8361 21.8372 16.4204 21.388 16.9316C20.7561 17.6706 20.0506 18.3434 19.2823 18.9394H25.0571C25.1627 18.9394 25.2659 18.9707 25.3537 19.0293C25.4416 19.0879 25.51 19.1712 25.5505 19.2688C25.591 19.3663 25.6017 19.4736 25.5812 19.5772C25.5608 19.6808 25.51 19.776 25.4355 19.8508Z" fill="#556DC2"/>
<path d="M20.2561 16.5107C20.5552 16.1703 20.7937 15.7813 20.9614 15.3603C21.1819 14.7723 21.165 14.2041 20.8184 13.6637C20.618 13.3454 20.3104 13.1093 19.9511 12.998C19.5919 12.8867 19.2047 12.9075 18.8595 13.0567C18.5889 13.186 18.3436 13.3624 18.135 13.5779C18.0984 13.6119 18.0502 13.6309 18.0002 13.6309C17.9502 13.6309 17.902 13.6119 17.8653 13.5779C17.6568 13.3624 17.4115 13.186 17.1409 13.0567C16.7957 12.9075 16.4085 12.8867 16.0492 12.998C15.69 13.1093 15.3824 13.3454 15.182 13.6637C14.8354 14.2041 14.8185 14.7723 15.039 15.3603C15.2066 15.7813 15.4452 16.1703 15.7443 16.5107C16.1891 17.0299 16.6876 17.5007 17.2313 17.9153C17.3829 18.0336 17.6489 18.2293 17.8248 18.3578C17.8757 18.3951 17.9371 18.4152 18.0002 18.4152C18.0633 18.4152 18.1247 18.3951 18.1756 18.3578C18.3515 18.2293 18.6175 18.0336 18.7691 17.9153C19.3128 17.5007 19.8113 17.0299 20.2561 16.5107Z" fill="#2E7ABC"/>
</g>
</g>
<defs>
<clipPath id="clip0_894_8842">
<rect width="36" height="36" fill="white"/>
</clipPath>
<clipPath id="clip1_894_8842">
<rect width="18" height="18" fill="white" transform="translate(9 9)"/>
</clipPath>
</defs>
</svg>
