<svg width="36" height="36" viewBox="0 0 36 36" fill="none" xmlns="http://www.w3.org/2000/svg">
<g clip-path="url(#clip0_894_8827)">
<circle cx="18" cy="18" r="18" fill="#EBF2FC"/>
<path d="M26.1045 12.2724C25.667 11.5767 24.9953 11.0604 24.2105 10.8166C23.4258 10.5728 22.5797 10.6175 21.8251 10.9428C21.3157 11.1762 20.8514 11.4975 20.4535 11.892C20.0559 11.4971 19.5915 11.1757 19.0819 10.9428C18.3275 10.6174 17.4817 10.5726 16.6971 10.8164C15.9126 11.0602 15.2412 11.5767 14.8042 12.2724C14.1038 13.3623 13.9977 14.5767 14.4879 15.8824C14.8158 16.7171 15.2868 17.4882 15.8796 18.1611C15.9747 18.2745 16.0698 18.3861 16.1685 18.4976C16.2417 18.547 16.3167 18.5982 16.3898 18.6531C16.7502 18.9208 17.1688 19.0994 17.6115 19.1743C17.9736 19.2347 18.3083 19.2895 18.6118 19.3407C17.9293 18.7675 17.2967 18.1374 16.7208 17.457C16.2094 16.8783 15.8017 16.2157 15.5157 15.4984C15.1481 14.52 15.2176 13.6586 15.7278 12.8631C15.9389 12.527 16.2319 12.2501 16.5793 12.0581C16.9266 11.8662 17.317 11.7656 17.7139 11.7658C18.0393 11.7664 18.3613 11.8317 18.6612 11.9578C19.08 12.1297 19.4531 12.4607 19.8317 12.8119C20.0011 12.968 20.2231 13.0546 20.4535 13.0546C20.6839 13.0546 20.9058 12.968 21.0753 12.8119C21.4538 12.4607 21.8269 12.1297 22.2457 11.9578C22.7622 11.7333 23.3419 11.7012 23.88 11.8673C24.4181 12.0333 24.879 12.3866 25.1791 12.8631L25.1809 12.8649C25.6894 13.6586 25.7588 14.52 25.3912 15.5002C25.1054 16.2171 24.6977 16.8792 24.1861 17.457C23.458 18.3103 22.6462 19.0884 21.7629 19.7796L24.2464 19.0225C24.5262 18.739 24.7841 18.4537 25.0273 18.1611C25.6193 17.4883 26.0902 16.7179 26.4191 15.8843C26.9092 14.5767 26.8031 13.3623 26.1045 12.2724Z" fill="#2D7ABE"/>
<path d="M20.6426 19.4891C20.8313 19.3513 21.1166 19.1414 21.2792 19.0144C21.8625 18.5698 22.3971 18.0647 22.8743 17.5077C23.1951 17.1427 23.451 16.7253 23.6308 16.2738C23.8674 15.643 23.8493 15.0336 23.4774 14.4539C23.2625 14.1125 22.9325 13.8592 22.5472 13.7398C22.1618 13.6204 21.7465 13.6428 21.3761 13.8028C21.0859 13.9415 20.8228 14.1308 20.5991 14.3618C20.5598 14.3984 20.5081 14.4187 20.4545 14.4187C20.4008 14.4187 20.3491 14.3984 20.3098 14.3618C20.0861 14.1308 19.823 13.9415 19.5328 13.8028C19.1625 13.6428 18.7471 13.6204 18.3617 13.7398C17.9764 13.8592 17.6464 14.1125 17.4315 14.4539C17.0596 15.0336 17.0415 15.643 17.2781 16.2738C17.4579 16.7253 17.7138 17.1427 18.0346 17.5077C18.5118 18.0647 19.0465 18.5698 19.6297 19.0144C19.7923 19.1414 20.0776 19.3513 20.2663 19.4891C20.3209 19.5291 20.3868 19.5507 20.4545 19.5507C20.5221 19.5507 20.588 19.5291 20.6426 19.4891Z" fill="#2D7ABE"/>
<path d="M25.5822 19.5053C25.5176 19.5046 25.4534 19.5145 25.392 19.5345L21.6649 20.6702C21.7418 20.8692 21.7713 21.0834 21.7508 21.2957C21.7216 21.6381 21.5676 21.9578 21.3181 22.1941C21.0686 22.4305 20.741 22.567 20.3975 22.5777C19.9915 22.5923 18.2413 22.6582 17.0508 22.702L16.204 22.735C16.1319 22.7377 16.0606 22.719 15.9991 22.6812C15.9376 22.6435 15.8887 22.5883 15.8586 22.5227C15.8284 22.4571 15.8184 22.3841 15.8298 22.3128C15.8411 22.2416 15.8734 22.1753 15.9224 22.1223C15.9548 22.087 15.994 22.0585 16.0377 22.0387C16.0814 22.0189 16.1287 22.0082 16.1766 22.0071C17.091 21.9724 19.8452 21.8699 20.3737 21.8517C20.5392 21.845 20.6967 21.7785 20.8168 21.6645C20.9369 21.5504 21.0115 21.3966 21.0266 21.2317C21.0391 21.065 20.9908 20.8994 20.8906 20.7656C20.7904 20.6317 20.6451 20.5387 20.4816 20.5038C19.9184 20.3923 18.4974 20.1545 17.4769 19.9863C16.9062 19.8889 16.3662 19.659 15.9005 19.3151C13.9692 17.8868 12.1166 18.6439 11.3742 19.0627L9.46384 20.1445C9.40753 20.1764 9.36068 20.2227 9.32809 20.2786C9.29549 20.3345 9.27832 20.3981 9.27832 20.4628V24.9687C9.27832 25.0343 9.29596 25.0987 9.3294 25.1551C9.36284 25.2116 9.41084 25.258 9.46837 25.2895C9.52591 25.321 9.59086 25.3365 9.65642 25.3342C9.72198 25.332 9.78574 25.3122 9.84102 25.2769L11.4369 24.2572C11.6261 24.1363 11.8381 24.0554 12.0597 24.0195C12.2813 23.9836 12.508 23.9933 12.7257 24.0483L15.6901 24.796C16.5185 25.0041 17.3939 24.9121 18.1609 24.5363L25.873 20.758C25.9537 20.7185 26.0256 20.663 26.0841 20.5947C26.1426 20.5265 26.1865 20.447 26.2132 20.3612C26.2403 20.2758 26.2494 20.1857 26.2399 20.0966C26.2305 20.0076 26.2027 19.9214 26.1583 19.8436C26.101 19.7411 26.0174 19.6557 25.9162 19.5963C25.8149 19.5368 25.6996 19.5054 25.5822 19.5053Z" fill="#556DC2"/>
</g>
<defs>
<clipPath id="clip0_894_8827">
<rect width="36" height="36" fill="white"/>
</clipPath>
</defs>
</svg>
