<svg width="36" height="36" viewBox="0 0 36 36" fill="none" xmlns="http://www.w3.org/2000/svg">
<circle cx="18" cy="18" r="18" fill="#EBF2FC"/>
<g clip-path="url(#clip0_819_9574)">
<path d="M24.4553 11.3155V12.5953C24.4548 12.9474 24.3444 13.2905 24.1393 13.5767C23.9343 13.8629 23.6449 14.0778 23.3117 14.1915C23.2074 14.2241 23.0944 14.2146 22.997 14.1651C22.8996 14.1155 22.8254 14.0298 22.7904 13.9262C22.7554 13.8227 22.7622 13.7095 22.8095 13.611C22.8568 13.5124 22.9408 13.4363 23.0435 13.3988C23.211 13.3415 23.3564 13.2332 23.4594 13.0891C23.5623 12.945 23.6177 12.7724 23.6177 12.5953V10.0365C23.6177 9.81136 23.5282 9.59541 23.369 9.43618C23.2098 9.27696 22.9938 9.1875 22.7686 9.1875C22.5434 9.1875 22.3275 9.27695 22.1682 9.43618C22.009 9.59541 21.9196 9.81136 21.9196 10.0365V11.3155H19.8314V12.5953C19.8309 12.9493 19.7193 13.2942 19.5122 13.5813C19.3051 13.8684 19.013 14.0832 18.6772 14.1953C18.6158 14.2148 18.5507 14.2194 18.4871 14.2089C18.4236 14.1984 18.3635 14.173 18.3116 14.1348C18.2598 14.0966 18.2177 14.0467 18.1888 13.9891C18.1599 13.9315 18.145 13.868 18.1454 13.8036V13.7934C18.1444 13.7071 18.1704 13.6227 18.2197 13.552C18.2691 13.4812 18.3393 13.4276 18.4206 13.3987C18.588 13.3413 18.7333 13.233 18.8362 13.0889C18.939 12.9449 18.9943 12.7723 18.9943 12.5953V10.0721C18.9977 9.84707 18.9139 9.6294 18.7606 9.46462C18.6072 9.29984 18.3961 9.2007 18.1714 9.18791C18.0577 9.18441 17.9446 9.20378 17.8385 9.24485C17.7325 9.28593 17.6358 9.34788 17.5542 9.42703C17.4726 9.50618 17.4077 9.60091 17.3634 9.70561C17.3191 9.81032 17.2962 9.92285 17.2962 10.0365V11.3155H15.2089V12.5953C15.2084 12.9474 15.0979 13.2906 14.8928 13.5769C14.6877 13.8631 14.3982 14.078 14.0649 14.1917C14.0022 14.2117 13.9356 14.2166 13.8706 14.2059C13.8057 14.1952 13.7441 14.1693 13.6911 14.1302C13.6381 14.0912 13.5951 14.0401 13.5656 13.9813C13.5361 13.9224 13.521 13.8573 13.5215 13.7915V13.7452C13.521 13.664 13.5443 13.5845 13.5885 13.5165C13.6328 13.4485 13.6961 13.395 13.7705 13.3626C14.0211 13.2559 14.371 13.0292 14.371 12.5953V10.0722C14.3744 9.84708 14.2906 9.62941 14.1373 9.46463C13.9839 9.29985 13.7728 9.2007 13.5481 9.18791C13.4344 9.18441 13.3212 9.20378 13.2152 9.24485C13.1092 9.28593 13.0125 9.34788 12.9309 9.42702C12.8493 9.50617 12.7844 9.60091 12.7401 9.70561C12.6958 9.81032 12.6729 9.92285 12.6729 10.0365V11.3155H11.5452C11.1103 11.3155 10.6931 11.4882 10.3856 11.7958C10.0781 12.1033 9.90527 12.5205 9.90527 12.9554V15.3348H26.0952V12.9554C26.0952 12.5205 25.9224 12.1033 25.6149 11.7958C25.3074 11.4882 24.8902 11.3155 24.4553 11.3155Z" fill="#2D7ABE"/>
<path d="M9.90625 25.0514C9.90606 25.5184 10.0913 25.9664 10.4214 26.2968C10.7514 26.6272 11.1991 26.8131 11.6662 26.8135H24.335C24.802 26.8131 25.2497 26.6272 25.5798 26.2968C25.9098 25.9664 26.0951 25.5184 26.0949 25.0514V16.7012H9.90625V25.0514ZM15.1848 19.7505C15.385 19.4325 15.6923 19.1966 16.0513 19.0854C16.4102 18.9742 16.7971 18.995 17.142 19.1441C17.4124 19.2732 17.6575 19.4496 17.8658 19.6648C17.9024 19.6989 17.9506 19.7178 18.0006 19.7178C18.0506 19.7178 18.0987 19.6989 18.1353 19.6648C18.3437 19.4496 18.5888 19.2732 18.8591 19.1441C19.2041 18.995 19.5909 18.9742 19.9499 19.0854C20.3088 19.1966 20.6162 19.4325 20.8164 19.7506C21.1628 20.2905 21.1797 20.8582 20.9593 21.4458C20.7918 21.8663 20.5535 22.2551 20.2546 22.5951C19.8101 23.114 19.3121 23.5844 18.7688 23.9986C18.6174 24.1168 18.3516 24.3124 18.1758 24.4408C18.125 24.478 18.0636 24.4981 18.0006 24.4981C17.9376 24.4981 17.8762 24.478 17.8253 24.4408C17.6495 24.3124 17.3838 24.1168 17.2324 23.9986C16.6891 23.5844 16.191 23.114 15.7465 22.5951C15.4477 22.2551 15.2094 21.8663 15.0419 21.4458C14.8215 20.8582 14.8384 20.2905 15.1848 19.7505Z" fill="#556DC2"/>
</g>
<defs>
<clipPath id="clip0_819_9574">
<rect width="18" height="18" fill="white" transform="translate(9 9)"/>
</clipPath>
</defs>
</svg>
