<svg width="36" height="36" viewBox="0 0 36 36" fill="none" xmlns="http://www.w3.org/2000/svg">
<g clip-path="url(#clip0_819_9615)">
<circle cx="18" cy="18" r="18" fill="#EBF2FC"/>
<g clip-path="url(#clip1_819_9615)">
<path d="M18.9591 13.6523C18.657 13.7965 18.3831 13.9936 18.1503 14.2341C18.1094 14.2721 18.0556 14.2933 17.9998 14.2933C17.9439 14.2933 17.8901 14.2721 17.8492 14.2341C17.6164 13.9936 17.3425 13.7965 17.0404 13.6523C16.655 13.4856 16.2227 13.4624 15.8216 13.5866C15.4205 13.7109 15.077 13.9745 14.8533 14.3299C14.4663 14.9332 14.4474 15.5676 14.6936 16.2242C14.8808 16.6941 15.1471 17.1285 15.4811 17.5085C15.9777 18.0882 16.5342 18.6139 17.1413 19.0767C17.3105 19.2088 17.6075 19.4273 17.8039 19.5708C17.8607 19.6124 17.9293 19.6349 17.9998 19.6349C18.0702 19.6349 18.1388 19.6124 18.1956 19.5708C18.392 19.4273 18.689 19.2088 18.8582 19.0767C19.4653 18.6139 20.0218 18.0882 20.5184 17.5085C20.8524 17.1285 21.1187 16.6941 21.3059 16.2242C21.5521 15.5676 21.5332 14.9332 21.1462 14.3299C20.9225 13.9745 20.579 13.7109 20.1779 13.5866C19.7769 13.4624 19.3445 13.4856 18.9591 13.6523Z" fill="#2D7ABE"/>
<path d="M26.1433 11.7021C26.0747 11.464 25.9461 11.2475 25.7699 11.0733C25.5937 10.8991 25.3757 10.773 25.1368 10.7071C22.8093 10.0818 20.4101 9.76264 17.9999 9.75781C15.5898 9.76264 13.1906 10.0818 10.863 10.7071C10.6242 10.773 10.4062 10.899 10.23 11.0732C10.0537 11.2474 9.92518 11.464 9.85656 11.702C8.9511 14.6904 8.95147 17.8801 9.85761 20.8683C9.92967 21.1095 10.0626 21.328 10.2435 21.5029C10.4244 21.6779 10.6474 21.8033 10.8908 21.8672C12.314 22.2454 13.7648 22.5112 15.2297 22.6622C15.3791 22.6756 15.5173 22.7467 15.6152 22.8603C15.713 22.974 15.7628 23.1213 15.7538 23.271C15.6932 24.1039 15.3962 25.058 14.5005 25.7259C14.4531 25.7631 14.4184 25.8141 14.4013 25.872C14.3843 25.9298 14.3857 25.9916 14.4055 26.0485C14.4252 26.1055 14.4622 26.1549 14.5114 26.1899C14.5605 26.2248 14.6194 26.2435 14.6797 26.2434C16.0309 26.2445 18.5078 25.8185 20.0947 22.9849C20.1404 22.9016 20.2056 22.8307 20.2847 22.7783C20.3639 22.7258 20.4547 22.6935 20.5491 22.684C22.089 22.5377 23.6142 22.2645 25.1091 21.8672C25.3525 21.8033 25.5755 21.6779 25.7564 21.5029C25.9373 21.328 26.0702 21.1094 26.1423 20.8683C27.0484 17.8801 27.0488 14.6904 26.1433 11.7021ZM22.9497 15.762C22.6695 16.4655 22.2708 17.1159 21.7708 17.6847C21.0272 18.5527 20.1941 19.3397 19.2851 20.0326C19.0319 20.2304 18.5873 20.5575 18.2931 20.7723C18.2081 20.8347 18.1054 20.8683 17.9999 20.8683C17.8945 20.8683 17.7918 20.8347 17.7068 20.7723C17.4126 20.5575 16.9681 20.2304 16.7148 20.0326C15.8058 19.3397 14.9726 18.5527 14.2291 17.6847C13.7291 17.1159 13.3304 16.4655 13.0502 15.762C12.6815 14.779 12.7098 13.8291 13.2893 12.9259C13.6242 12.3939 14.1383 11.9992 14.7389 11.8131C15.3394 11.6271 15.9866 11.6619 16.5637 11.9114C17.0262 12.1027 17.4078 12.4414 17.7746 12.7824C17.8358 12.8394 17.9163 12.8711 18 12.8711C18.0836 12.8711 18.1641 12.8394 18.2254 12.7824C18.5921 12.4414 18.9736 12.1027 19.4362 11.9114C20.0133 11.6619 20.6605 11.627 21.261 11.8131C21.8615 11.9992 22.3757 12.3939 22.7106 12.9259C23.2901 13.8291 23.3183 14.779 22.9497 15.762Z" fill="#556DC2"/>
</g>
</g>
<defs>
<clipPath id="clip0_819_9615">
<rect width="36" height="36" fill="white"/>
</clipPath>
<clipPath id="clip1_819_9615">
<rect width="18" height="18" fill="white" transform="translate(9 9)"/>
</clipPath>
</defs>
</svg>
