<?xml version="1.0" encoding="iso-8859-1"?>
<!-- Generator: Adobe Illustrator 19.0.0, SVG Export Plug-In . SVG Version: 6.00 Build 0)  -->
<svg version="1.1" id="Layer_1" xmlns="http://www.w3.org/2000/svg" xmlns:xlink="http://www.w3.org/1999/xlink" x="0px" y="0px"
	 viewBox="0 0 512 512" style="enable-background:new 0 0 512 512;" xml:space="preserve">
<path style="fill:#CFE5E2;" d="M282.994,73.65h110.05c12.614,0,22.841,10.779,22.841,24.075v402.837
	c0,8.49-8.934,14.011-16.527,10.214l-143.356-71.678l-143.356,71.678c-7.593,3.797-16.527-1.725-16.527-10.214V97.725
	c0-13.296,10.227-24.075,22.841-24.075h110.05C229.007,73.65,282.994,73.65,282.994,73.65z"/>
<path style="fill:#88A3A0;" d="M399.357,510.777c7.593,3.797,16.527-1.725,16.527-10.214V97.725
	c0-13.296-10.227-24.075-22.841-24.075h-110.05h-53.986h-110.05c-12.614,0-22.841,10.779-22.841,24.075v402.837
	c0,8.49,8.934,14.011,16.527,10.214l143.356-71.678L399.357,510.777z M118.956,482.085V97.725c0-0.667,0.22-1.054,0.363-1.234
	h273.362c0.141,0.18,0.363,0.569,0.363,1.234v384.359L266.215,418.67c-3.216-1.607-6.715-2.411-10.214-2.411
	c-3.499,0-7,0.804-10.214,2.411L118.956,482.085z"/>
<path style="fill:#53605F;" d="M339.885,199.335c-0.252-0.312-0.519-0.616-0.808-0.905c-0.289-0.289-0.593-0.557-0.905-0.808
	c-3.942-3.538-9.135-5.712-14.837-5.712h-51.832c-6.147,0-11.13,4.984-11.13,11.13c0,6.146,4.983,11.13,11.13,11.13h36.091
	l-47.464,47.464l-7.308-9.333c-4.489-5.732-11.239-9.02-18.521-9.021l0,0c-7.281,0-14.032,3.289-18.522,9.021l-13.435,17.158
	l-20.471,7.476c-6.84,2.498-12.053,7.903-14.304,14.828s-1.209,14.36,2.856,20.402l12.167,18.081l0.785,21.779
	c0.262,7.276,3.791,13.904,9.682,18.185c4.081,2.965,8.886,4.504,13.782,4.504c2.168,0,4.355-0.302,6.505-0.916l20.956-5.984
	l20.956,5.984c7.002,2.001,14.396,0.691,20.286-3.588c5.89-4.281,9.42-10.909,9.681-18.185l0.785-21.779l12.168-18.081
	c4.065-6.042,5.105-13.478,2.855-20.403c-2.249-6.925-7.463-12.329-14.302-14.827l-7.631-2.787l44.237-44.237v36.091
	c0,6.146,4.983,11.13,11.13,11.13s11.13-4.984,11.13-11.13V214.17C345.596,208.469,343.422,203.278,339.885,199.335z
	 M279.859,298.643c0.19,0.585-0.068,0.969-0.152,1.095l-13.941,20.718c-1.16,1.724-1.814,3.736-1.889,5.813l-0.899,24.955
	c-0.006,0.152-0.022,0.616-0.52,0.977c-0.496,0.363-0.942,0.235-1.09,0.194l-24.013-6.856c-0.998-0.286-2.027-0.429-3.056-0.429
	s-2.058,0.142-3.056,0.429l-24.011,6.856c-0.146,0.041-0.591,0.169-1.09-0.194c-0.499-0.362-0.514-0.825-0.52-0.977l-0.899-24.955
	c-0.075-2.076-0.729-4.089-1.889-5.813l-13.941-20.718c-0.085-0.126-0.344-0.51-0.154-1.095c0.19-0.584,0.626-0.744,0.768-0.796
	l23.456-8.567c1.951-0.713,3.664-1.958,4.945-3.594l15.395-19.661c0.093-0.119,0.38-0.485,0.995-0.485
	c0.616,0,0.902,0.365,0.995,0.485l0,0l15.397,19.661c1.28,1.636,2.993,2.881,4.944,3.594l23.457,8.567
	C279.235,297.899,279.67,298.058,279.859,298.643z"/>
<path style="fill:#877E73;" d="M503.882,22.612c-67.413,19.626-140.923,30.742-218.489,33.039c-0.107,0.002-0.213,0.004-0.318,0.004
	h-58.148c-0.106,0-0.211-0.001-0.318-0.004C149.042,53.354,75.533,42.238,8.118,22.612c-5.917-1.723-9.364-8.084-7.7-14.208
	c1.665-6.123,7.815-9.688,13.729-7.968c65.613,19.103,137.251,29.931,212.938,32.183h57.828
	c75.687-2.253,147.325-13.08,212.939-32.183c5.916-1.722,12.063,1.844,13.729,7.968C513.247,14.528,509.8,20.889,503.882,22.612z"/>
<path style="fill:#DDAC5E;" d="M267.953,122.437h-23.907c-5.816,0-10.652-3.789-11.098-8.696L223.53,10.144
	c-0.498-5.469,4.614-10.141,11.098-10.141h42.743c6.483,0,11.594,4.67,11.098,10.141l-9.418,103.598
	C278.605,118.649,273.77,122.437,267.953,122.437z"/>
<g>
</g>
<g>
</g>
<g>
</g>
<g>
</g>
<g>
</g>
<g>
</g>
<g>
</g>
<g>
</g>
<g>
</g>
<g>
</g>
<g>
</g>
<g>
</g>
<g>
</g>
<g>
</g>
<g>
</g>
</svg>
