<svg xmlns="http://www.w3.org/2000/svg" width="132" height="248" fill="none" xmlns:v="https://vecta.io/nano"><mask id="A" mask-type="alpha" maskUnits="userSpaceOnUse" x="0" y="0" width="132" height="248"><path d="M0 16C0 7.163 7.163 0 16 0h100c8.837 0 16 7.163 16 16v216c0 8.837-7.163 16-16 16H16c-8.837 0-16-7.163-16-16V16z" fill="#0095da"/></mask><g mask="url(#A)"><path d="M0 16C0 7.163 7.163 0 16 0h100c8.837 0 16 7.163 16 16v216c0 8.837-7.163 16-16 16H16c-8.837 0-16-7.163-16-16V16z" fill="#daf3ff"/><g style="mix-blend-mode:multiply" opacity=".4"><circle cx="6.5" cy="-56.5" r="140.5" fill="#daf3ff"/></g><g style="mix-blend-mode:multiply" opacity=".4"><circle r="195" transform="matrix(-1 0 0 1 170 357)" fill="#daf3ff"/></g><g style="mix-blend-mode:multiply" opacity=".4"><circle cx="-104" cy="186" r="195" fill="#daf3ff"/></g></g></svg>