<svg width="21" height="20" viewBox="0 0 21 20" fill="none" xmlns="http://www.w3.org/2000/svg">
<path d="M10.5002 3.86666C12.378 3.86666 13.6447 4.67778 14.3669 5.35555L17.1891 2.6C15.4558 0.988888 13.2002 0 10.5002 0C6.58912 0 3.21134 2.24444 1.56689 5.51111L4.80023 8.02222C5.61134 5.61111 7.85578 3.86666 10.5002 3.86666Z" fill="#EA4335"/>
<path d="M20.0998 10.2222C20.0998 9.39996 20.0331 8.79996 19.8886 8.17773H10.4998V11.8888H16.0109C15.8998 12.8111 15.2998 14.2 13.9664 15.1333L17.122 17.5777C19.0109 15.8333 20.0998 13.2666 20.0998 10.2222Z" fill="#4285F4"/>
<path d="M4.81111 11.9774C4.6 11.3552 4.47778 10.6885 4.47778 9.99963C4.47778 9.31074 4.6 8.64407 4.8 8.02185L1.56667 5.51074C0.888889 6.8663 0.5 8.38852 0.5 9.99963C0.5 11.6107 0.888889 13.133 1.56667 14.4885L4.81111 11.9774Z" fill="#FBBC05"/>
<path d="M10.4999 19.9998C13.1999 19.9998 15.4665 19.1109 17.1221 17.5775L13.9665 15.1331C13.1221 15.722 11.9887 16.1331 10.4999 16.1331C7.85541 16.1331 5.61097 14.3886 4.81097 11.9775L1.57764 14.4886C3.22208 17.7553 6.58875 19.9998 10.4999 19.9998Z" fill="#34A853"/>
</svg>
