<svg width="116" height="75" viewBox="0 0 116 75" fill="none" xmlns="http://www.w3.org/2000/svg">
<g clip-path="url(#clip0_531_4927)">
<path opacity="0.34" d="M36.7544 23.5596C34.8891 27.7158 19.145 28.5864 14.8357 20.9484C13.2455 18.13 13.0135 13.7991 15.1929 11.6493C18.8969 7.99165 28.9173 11.2675 33.9423 17.1651C35.2722 18.7259 37.6639 21.5327 36.7544 23.5596Z" fill="url(#paint0_linear_531_4927)"/>
<path opacity="0.34" d="M0.5 74.7736C3.30196 64.6805 8.69547 51.2851 19.5775 47.942C28.9796 45.0541 29.2061 52.1844 40.657 53.8449C70.8657 58.2249 85.0172 16.7598 101.53 23.2571C112.043 27.392 118.426 41.1 114.156 56.4673C111.718 65.2396 106.933 71.3408 103.799 74.7126L0.5 74.7736Z" fill="url(#paint1_linear_531_4927)"/>
<path d="M15.2249 74.2493H98.8715M103.428 74.126H112.516M8.39038 74.126H11.9354" stroke="#5C75C9" stroke-width="2" stroke-miterlimit="10" stroke-linecap="round"/>
<path d="M77.5854 22.3018V74.9163H47.7947C46.2746 74.9167 44.804 74.385 43.6456 73.4162C42.4872 72.4474 41.7165 71.1046 41.4712 69.6278C41.4201 69.2971 41.3968 68.9629 41.4013 68.6284C41.399 68.0488 41.399 63.4416 41.399 60.6217V59.9357C41.399 56.6838 41.399 52.9214 41.3966 50.4126V48.1028C41.3966 47.3941 41.3943 46.6575 41.3943 45.9001V45.3741C41.3943 45.1453 41.3943 44.9166 41.3919 44.6882V44.3404C41.3919 42.3506 41.3896 40.2603 41.3872 38.1905C41.3872 37.4769 41.3864 36.7665 41.3848 36.0593V34.1085C41.3848 33.6741 41.3848 33.244 41.3825 32.8185V32.6079C41.3825 31.9745 41.3801 31.3547 41.3801 30.7511C41.3801 29.5457 41.3778 28.4092 41.3754 27.3731C41.3754 24.7384 41.3731 22.7602 41.3707 21.9757V21.6051C41.3714 21.5364 41.3628 21.4679 41.3452 21.4014C41.2339 20.1537 40.7601 18.9638 39.9806 17.9739C39.201 16.984 38.1485 16.2359 36.9487 15.8188C36.3529 15.61 35.7289 15.4891 35.0971 15.4598L35.0669 15.4482H70.6237C74.4678 15.4482 77.5854 18.5189 77.5854 22.3018Z" fill="url(#paint2_linear_531_4927)"/>
<path opacity="0.51" d="M48.3165 74.9163H47.7937C46.2738 74.9164 44.8033 74.3846 43.6449 73.4158C42.4866 72.447 41.7158 71.1044 41.4702 69.6278C41.4191 69.2971 41.3958 68.9629 41.4003 68.6284C41.4003 67.0869 41.398 50.9478 41.3956 48.1028C41.3956 47.3941 41.3933 46.6575 41.3933 45.9001C41.3933 45.388 41.3933 44.8663 41.3909 44.3404C41.3909 42.3506 41.3886 40.2603 41.3862 38.1905C41.3862 37.4769 41.3854 36.7665 41.3839 36.0593V34.1085C41.3839 33.6741 41.3839 33.244 41.3815 32.8185V32.6079C41.3815 31.9745 41.3791 31.3547 41.3791 30.7511C41.3791 29.5457 41.3768 28.4092 41.3744 27.3731C41.3744 24.7384 41.3721 22.7602 41.3697 21.9757V21.6051C41.3704 21.5364 41.3619 21.4679 41.3442 21.4014C41.2329 20.1537 40.7592 18.9638 39.9796 17.9739C39.2 16.984 38.1475 16.2359 36.9478 15.8188C36.3519 15.61 35.7279 15.4891 35.0961 15.4598L35.0659 15.4482H36.9894C37.1519 15.4915 37.3124 15.5421 37.4702 15.597C38.6722 16.0188 39.7257 16.7719 40.5052 17.7665C41.2847 18.7611 41.7573 19.9554 41.8667 21.207C41.8843 21.2734 41.8929 21.3417 41.8922 21.4103V21.7859C41.8946 22.5751 41.8969 24.5622 41.8969 27.2105C41.8993 28.2512 41.9016 29.3923 41.9016 30.6046C41.9016 31.2105 41.904 31.8327 41.904 32.4707V32.681C41.9063 33.1088 41.9063 33.5408 41.9063 33.9779V35.9379C41.9087 36.6492 41.9095 37.3635 41.9087 38.0808C41.9111 40.1594 41.9134 42.2613 41.9134 44.2604C41.9158 44.7887 41.9158 45.3123 41.9158 45.827C41.9158 46.5887 41.9181 47.3272 41.9181 48.041C41.9205 50.9007 41.9228 67.0506 41.9228 68.5998C41.9183 68.9361 41.9417 69.2721 41.9927 69.6046C42.4877 72.6154 45.1291 74.9163 48.3165 74.9163Z" fill="white"/>
<path d="M90.5636 65.7686V68.0648C90.5636 71.8496 87.446 74.9165 83.6038 74.9165H48.1699C49.1199 74.8226 50.5997 74.4431 51.773 73.5512L51.7778 73.5465C52.5344 72.9573 53.1455 72.2068 53.5651 71.3516C53.9847 70.4964 54.202 69.5587 54.2005 68.6089V65.7686H90.5636Z" fill="url(#paint3_linear_531_4927)"/>
<path d="M41.3957 41.4706H21.4797C21.9053 41.4713 22.3299 41.4302 22.7473 41.3481C24.2569 41.059 25.6174 40.262 26.5955 39.0935C27.5736 37.9251 28.1084 36.4581 28.1082 34.944V21.9765C28.1079 21.1192 28.2792 20.2703 28.6123 19.4783C28.9453 18.6862 29.4336 17.9665 30.0493 17.3603C30.6649 16.7541 31.3959 16.2732 32.2003 15.9451C33.0048 15.617 33.867 15.4482 34.7378 15.4482H34.7421C34.8623 15.4482 34.9777 15.4525 35.0954 15.4598C35.7273 15.4888 36.3512 15.6098 36.947 15.8188C38.1468 16.2355 39.1993 16.9834 39.979 17.9731C40.7586 18.9628 41.2323 20.1526 41.3435 21.4003C41.3623 21.5892 41.3698 21.7821 41.3698 21.9741C41.3698 22.7586 41.3733 24.7361 41.3749 27.372C41.3749 28.4069 41.3776 29.5438 41.3784 30.7499V30.3194V31.6805C41.3784 33.0543 41.382 34.4741 41.3827 35.9024V37.1738C41.3906 39.375 41.3957 41.2071 41.3957 41.4706Z" fill="#5C75C9"/>
<path d="M28.1086 32.2979V34.9207C28.1087 36.4348 27.5739 37.9018 26.5957 39.0702C25.6175 40.2386 24.257 41.0357 22.7473 41.3248C22.3298 41.4069 21.9051 41.4478 21.4794 41.4469H21.4754C19.7175 41.4467 18.0316 40.7592 16.7885 39.5356C15.5454 38.312 14.8467 36.6524 14.8462 34.9218V32.2979H28.1086Z" fill="url(#paint4_linear_531_4927)"/>
<path opacity="0.69" d="M44.2405 24.5713H57.075V26.2496H44.2405V24.5713ZM44.2405 30.3111H57.075V31.9895H44.2405V30.3111ZM59.7482 44.4199H74.4206V46.0982H59.7482V44.4199ZM59.7482 50.1597H74.4206V51.838H59.7482V50.1597ZM59.7482 56.5047H74.4206V58.1831H59.7482V56.5047Z" fill="#A1BFF1"/>
<path d="M66.6303 35.3307C70.9757 35.3307 74.4984 31.8627 74.4984 27.5848C74.4984 23.3068 70.9757 19.8389 66.6303 19.8389C62.2849 19.8389 58.7622 23.3068 58.7622 27.5848C58.7622 31.8627 62.2849 35.3307 66.6303 35.3307Z" fill="white"/>
<path d="M72.017 32.9934V33.2299C72.0037 33.2431 71.9903 33.2554 71.9778 33.2686C70.5237 34.5954 68.6142 35.3326 66.6316 35.3326C64.6489 35.3326 62.7394 34.5954 61.2853 33.2686C61.272 33.2572 61.2589 33.2444 61.2461 33.2299V33.005C61.2461 32.5785 61.3813 32.1626 61.633 31.8153C61.8846 31.4681 62.2401 31.2069 62.6498 31.0682C62.6498 31.0682 64.3052 30.5182 64.852 30.3219C65.2053 30.1948 65.495 29.9595 65.5468 29.6144C65.4429 29.5276 65.3521 29.4268 65.2771 29.3149L64.8787 28.7186C64.6585 28.391 64.5223 28.0157 64.4818 27.6249C64.3805 27.6006 64.3248 27.5407 64.2667 27.4479C64.2614 27.4395 64.2567 27.4307 64.2526 27.4217L64.0123 26.8648C63.9491 26.6843 64.0374 26.4892 64.2251 26.3945L64.249 26.3821C64.2866 26.3638 64.3281 26.3548 64.3699 26.3559L64.2891 25.5057C64.2891 24.6887 64.2891 23.7404 65.5727 23.9328C65.9978 23.2392 67.6139 23.3427 68.4253 23.8942C68.9356 24.242 68.7962 25.0798 68.7962 25.4118V26.3779C68.8303 26.361 68.868 26.3522 68.9061 26.3522C68.9443 26.3522 68.9819 26.361 69.016 26.3779L69.04 26.3902C69.2276 26.4849 69.3148 26.6801 69.2535 26.8606L69.0125 27.4174C69.0084 27.4264 69.0036 27.4352 68.9984 27.4437C68.9399 27.5357 68.8853 27.596 68.7848 27.6207C68.747 28.0077 68.6152 28.3802 68.4005 28.7066L68.0135 29.2994C67.9582 29.3833 67.8938 29.461 67.8215 29.5313C67.8349 29.92 68.147 30.1774 68.5207 30.3219C69.1032 30.548 70.6314 31.0562 70.6314 31.0562C71.0378 31.1979 71.3894 31.4605 71.6376 31.8075C71.8859 32.1546 72.0184 32.569 72.017 32.9934Z" fill="url(#paint5_linear_531_4927)"/>
<path d="M74.4975 27.5828C74.4987 28.6404 74.2791 29.6869 73.8523 30.6575C73.4256 31.6281 72.8008 32.5019 72.0167 33.2249V32.993C72.0168 32.5691 71.8833 32.1556 71.6347 31.8095C71.386 31.4634 71.0343 31.2018 70.6282 31.0608C70.6282 31.0608 69.1001 30.5538 68.5176 30.3266C68.1439 30.182 67.8318 29.9247 67.8184 29.5359C67.8907 29.4656 67.9551 29.3879 68.0104 29.304L68.3974 28.7112C68.6121 28.3848 68.7439 28.0124 68.7817 27.6253C68.8822 27.601 68.9364 27.5403 68.9953 27.4483C69.0005 27.4399 69.0052 27.4311 69.0094 27.422L69.2504 26.8652C69.3136 26.6847 69.2245 26.4896 69.0369 26.3949L69.0129 26.3825C68.9788 26.3656 68.9412 26.3569 68.903 26.3569C68.8649 26.3569 68.8272 26.3656 68.7931 26.3825V25.4164C68.7931 25.0844 68.9317 24.2466 68.4222 23.8988C67.6128 23.347 65.9947 23.2438 65.5696 23.9375C64.286 23.7443 64.286 24.6934 64.286 25.5103L64.3668 26.3605C64.325 26.3594 64.2834 26.3684 64.2459 26.3868L64.222 26.3991C64.0343 26.4938 63.9472 26.689 64.0092 26.8694L64.2495 27.4263C64.2536 27.4353 64.2583 27.4441 64.2636 27.4526C64.3233 27.5453 64.3774 27.6048 64.4787 27.6296C64.5192 28.0203 64.6554 28.3956 64.8756 28.7232L65.274 29.3195C65.349 29.4314 65.4398 29.5322 65.5437 29.619C65.4922 29.9641 65.2022 30.1986 64.8489 30.3266C64.3017 30.5229 62.6467 31.0728 62.6467 31.0728C62.237 31.2115 61.8815 31.4727 61.6299 31.82C61.3782 32.1672 61.243 32.5831 61.243 33.0096V33.2346C60.458 32.5104 59.8327 31.6349 59.4062 30.6626C58.9797 29.6902 58.761 28.6419 58.7637 27.5828C58.7637 23.3045 62.286 19.8369 66.6318 19.8369C70.9776 19.8369 74.4975 23.306 74.4975 27.5828Z" fill="white"/>
<path d="M61.2437 33.2295L61.2829 33.2681H61.2437V33.2295Z" fill="url(#paint6_linear_531_4927)"/>
<path d="M72.017 33.2285V33.2672H71.9778C71.9903 33.254 72.0037 33.2417 72.017 33.2285Z" fill="url(#paint7_linear_531_4927)"/>
<path d="M56.4642 49.0738H56.4525C56.4713 49.0738 56.4623 55.6012 56.4564 59.0074C56.4556 59.5457 56.2383 60.0619 55.852 60.443C55.4658 60.8241 54.942 61.0392 54.3952 61.0412C50.7398 61.0575 43.4947 61.069 43.4947 61.069H39.7173C39.3226 61.0688 38.9318 61.1452 38.5672 61.2937C38.2025 61.4422 37.8712 61.66 37.592 61.9346C37.3129 62.2092 37.0914 62.5352 36.9403 62.8941C36.7891 63.253 36.7113 63.6376 36.7112 64.0261V52.0065C36.7112 51.6213 36.7884 51.2399 36.9382 50.8841C37.088 50.5282 37.3076 50.2049 37.5844 49.9326C37.8612 49.6603 38.1898 49.4444 38.5514 49.2972C38.913 49.15 39.3005 49.0743 39.6917 49.0746H54.1506C54.764 49.074 55.3522 48.8338 55.7859 48.4068C56.2197 47.9798 56.4636 47.4008 56.4642 46.7969V49.0738Z" fill="#FA8A68"/>
<path d="M41.3073 63.7824V61.1132C41.3073 61.1013 41.3025 61.0899 41.294 61.0815C41.2854 61.0731 41.2739 61.0684 41.2618 61.0684H39.5809C38.5957 61.0684 37.422 61.7752 37.0184 62.6605C36.4116 63.9968 36.7542 65.2992 37.5923 66.12C37.8703 66.3957 38.2011 66.6144 38.5656 66.7634C38.9301 66.9124 39.3209 66.9887 39.7156 66.9879H41.2586C41.2707 66.9879 41.2823 66.9832 41.2908 66.9748C41.2994 66.9664 41.3042 66.955 41.3042 66.9431V66.37C41.305 65.4804 41.3073 64.6151 41.3073 63.7824Z" fill="url(#paint8_linear_531_4927)"/>
<path opacity="0.08" d="M41.3079 61.0684H56.4643V66.9431H41.3079V61.0684Z" fill="url(#paint9_linear_531_4927)"/>
<path opacity="0.08" d="M41.3079 44.5156H52.8545V49.0737H41.3079V44.5156Z" fill="url(#paint10_linear_531_4927)"/>
<path d="M56.4587 46.6411C56.4799 46.9525 56.436 47.2648 56.3296 47.5588C56.2233 47.8528 56.0567 48.1222 55.8403 48.3502C55.6239 48.5783 55.3622 48.7602 55.0715 48.8846C54.7808 49.0091 54.4672 49.0734 54.1502 49.0737H52.6342C52.6275 49.0737 52.854 49.0683 52.854 49.0614V44.528C52.854 44.5214 52.6271 44.5156 52.6342 44.5156H54.0678C55.3003 44.5156 56.3779 45.43 56.4587 46.6411Z" fill="url(#paint11_linear_531_4927)"/>
<path d="M45.8246 58.2424C45.7307 58.3496 45.6146 58.4357 45.4841 58.495C45.3536 58.5543 45.2117 58.5855 45.068 58.5864C44.9243 58.5872 44.782 58.5578 44.6507 58.5001C44.5195 58.4424 44.4023 58.3577 44.3071 58.2517L42.163 55.8647C42.0193 55.6991 41.9101 55.5073 41.8417 55.3002C41.7732 55.0931 41.7469 54.8748 41.7642 54.6577C41.7815 54.4406 41.842 54.229 41.9424 54.0349C42.0427 53.8408 42.1809 53.6681 42.3491 53.5267L45.0682 56.6569L48.6109 52.5424C48.7539 52.3762 48.9287 52.2394 49.1254 52.1398C49.3221 52.0402 49.5368 51.9796 49.7573 51.9617C49.9777 51.9437 50.1996 51.9687 50.4103 52.0352C50.6209 52.1017 50.8162 52.2084 50.985 52.3492L45.8246 58.2424Z" fill="white"/>
<path d="M88.7832 7.53809C88.3333 8.01589 87.7922 8.40177 87.1908 8.67371C86.5894 8.94564 85.9395 9.0983 85.2782 9.12297C84.6169 9.14764 83.9571 9.04384 83.3366 8.81748C82.716 8.59113 82.1468 8.24667 81.6615 7.80375C82.5701 6.83879 83.8309 6.26869 85.1664 6.21886C86.502 6.16904 87.803 6.64358 88.7832 7.53809Z" fill="url(#paint12_linear_531_4927)"/>
<path d="M80.9784 15.8259C80.4928 15.383 80.1006 14.8504 79.8242 14.2583C79.5477 13.6662 79.3925 13.0262 79.3673 12.3751C79.3422 11.7239 79.4476 11.0742 79.6775 10.4632C79.9074 9.8521 80.2574 9.29161 80.7073 8.81372C81.1929 9.25657 81.5851 9.78926 81.8615 10.3814C82.138 10.9735 82.2932 11.6134 82.3184 12.2645C82.3435 12.9157 82.2381 13.5654 82.0082 14.1764C81.7783 14.7875 81.4283 15.348 80.9784 15.8259Z" fill="#FD9271"/>
<path d="M80.8053 7.02121C79.8251 6.1267 79.246 4.88551 79.1954 3.57067C79.1448 2.25582 79.6268 0.975043 80.5354 0.0100799C81.0207 0.452993 81.4127 0.985683 81.6889 1.57773C81.9652 2.16977 82.1202 2.80958 82.1453 3.46062C82.1704 4.11167 82.0649 4.7612 81.835 5.37212C81.6051 5.98305 81.2552 6.5434 80.8053 7.02121Z" fill="#5C75C9"/>
<path d="M79.8518 8.03223C79.4019 8.51003 78.8608 8.89591 78.2594 9.16785C77.658 9.43978 77.0081 9.59244 76.3468 9.61711C75.6855 9.64178 75.0257 9.53798 74.4052 9.31162C73.7846 9.08527 73.2154 8.74081 72.7301 8.2979C73.6387 7.33293 74.8995 6.76283 76.2351 6.71301C77.5706 6.66318 78.8716 7.13772 79.8518 8.03223Z" fill="url(#paint13_linear_531_4927)"/>
<path d="M24.9277 60.8037C24.32 61.4489 23.4768 61.83 22.5837 61.8632C21.6906 61.8963 20.8206 61.5788 20.1653 60.9806C20.773 60.3354 21.6162 59.9543 22.5093 59.9211C23.4024 59.8879 24.2724 60.2054 24.9277 60.8037Z" fill="url(#paint14_linear_531_4927)"/>
<path d="M19.7041 66.3667C19.0487 65.7685 18.6614 64.9385 18.6276 64.0592C18.5937 63.18 18.9161 62.3235 19.5237 61.6782C20.1791 62.2764 20.5664 63.1064 20.6002 63.9856C20.6341 64.8649 20.3117 65.7214 19.7041 66.3667Z" fill="#5C75C9"/>
<path d="M19.5884 60.478C18.9329 59.8798 18.5457 59.0498 18.5118 58.1705C18.478 57.2913 18.8003 56.4348 19.4079 55.7895C20.0634 56.3877 20.4507 57.2177 20.4845 58.097C20.5183 58.9762 20.196 59.8327 19.5884 60.478Z" fill="#FD9271"/>
<path d="M18.9507 61.1543C18.3431 61.7996 17.5 62.1808 16.6068 62.2141C15.7137 62.2475 14.8437 61.9301 14.1883 61.332C14.7959 60.6867 15.639 60.3054 16.5321 60.2721C17.4252 60.2388 18.2952 60.5561 18.9507 61.1543Z" fill="url(#paint15_linear_531_4927)"/>
<path d="M12.3127 48.4119L12.5836 48.8992C12.917 49.4995 13.4184 49.993 14.0281 50.3214L14.5231 50.588L14.0281 50.8547C13.4184 51.183 12.917 51.6765 12.5836 52.2768L12.3127 52.7641L12.0418 52.2768C11.7084 51.6765 11.207 51.183 10.5973 50.8547L10.1023 50.588L10.5973 50.3214C11.207 49.993 11.7084 49.4995 12.0418 48.8992L12.3127 48.4119ZM91.4333 53.3886L91.7041 53.8759C92.0376 54.4761 92.5389 54.9697 93.1487 55.298L93.6437 55.5646L93.1502 55.8317C92.5405 56.16 92.0392 56.6535 91.7057 57.2538L91.4348 57.7411L91.164 57.2538C90.8305 56.6535 90.3292 56.16 89.7194 55.8317L89.2244 55.565L89.7194 55.2984C90.3292 54.9701 90.8305 54.4765 91.164 53.8763L91.4333 53.3886ZM63.8714 4.55859L64.1422 5.0459C64.4757 5.64617 64.9771 6.13971 65.5868 6.46802L66.0818 6.73467L65.5868 7.00131C64.9771 7.32962 64.4757 7.82316 64.1422 8.42343L63.8714 8.91073L63.6005 8.42343C63.2671 7.82316 62.7657 7.32962 62.156 7.00131L61.661 6.73467L62.156 6.46802C62.7657 6.13971 63.2671 5.64617 63.6005 5.0459L63.8714 4.55859Z" fill="#5C74C6"/>
</g>
<defs>
<linearGradient id="paint0_linear_531_4927" x1="28.3313" y1="33.4319" x2="22.5719" y2="6.757" gradientUnits="userSpaceOnUse">
<stop stop-color="#D6E6FD"/>
<stop offset="1" stop-color="#D2E3FD"/>
</linearGradient>
<linearGradient id="paint1_linear_531_4927" x1="54.4793" y1="104.195" x2="157.432" y2="53.3598" gradientUnits="userSpaceOnUse">
<stop stop-color="#D6E6FD"/>
<stop offset="1" stop-color="#D2E3FD"/>
</linearGradient>
<linearGradient id="paint2_linear_531_4927" x1="98.7568" y1="43.7909" x2="108.623" y2="89.4848" gradientUnits="userSpaceOnUse">
<stop stop-color="#D6E6FD"/>
<stop offset="1" stop-color="#D2E3FD"/>
</linearGradient>
<linearGradient id="paint3_linear_531_4927" x1="56.3148" y1="70.3425" x2="124.706" y2="70.3425" gradientUnits="userSpaceOnUse">
<stop stop-color="#5C75C9"/>
<stop offset="1" stop-color="#2E419B"/>
</linearGradient>
<linearGradient id="paint4_linear_531_4927" x1="30.169" y1="40.7405" x2="18.5308" y2="33.397" gradientUnits="userSpaceOnUse">
<stop stop-color="#373282"/>
<stop offset="1" stop-color="#2E419B"/>
</linearGradient>
<linearGradient id="paint5_linear_531_4927" x1="66.6302" y1="42.5541" x2="66.6302" y2="25.3152" gradientUnits="userSpaceOnUse">
<stop stop-color="#5C75C9"/>
<stop offset="1" stop-color="#2E419B"/>
</linearGradient>
<linearGradient id="paint6_linear_531_4927" x1="61.2637" y1="33.282" x2="61.2637" y2="33.231" gradientUnits="userSpaceOnUse">
<stop stop-color="#5C75C9"/>
<stop offset="1" stop-color="#2E419B"/>
</linearGradient>
<linearGradient id="paint7_linear_531_4927" x1="71.9962" y1="33.2826" x2="71.9962" y2="33.2304" gradientUnits="userSpaceOnUse">
<stop stop-color="#5C75C9"/>
<stop offset="1" stop-color="#2E419B"/>
</linearGradient>
<linearGradient id="paint8_linear_531_4927" x1="39.2689" y1="59.6737" x2="38.9162" y2="67.7354" gradientUnits="userSpaceOnUse">
<stop stop-color="#373282"/>
<stop offset="1" stop-color="#2E419B"/>
</linearGradient>
<linearGradient id="paint9_linear_531_4927" x1="41.3079" y1="64.0057" x2="56.4643" y2="64.0057" gradientUnits="userSpaceOnUse">
<stop stop-color="#2E419B"/>
<stop offset="1" stop-color="#373282" stop-opacity="0"/>
</linearGradient>
<linearGradient id="paint10_linear_531_4927" x1="41.9273" y1="46.7945" x2="52.6617" y2="46.7945" gradientUnits="userSpaceOnUse">
<stop stop-color="#373282" stop-opacity="0"/>
<stop offset="1" stop-color="#2E419B"/>
</linearGradient>
<linearGradient id="paint11_linear_531_4927" x1="54.549" y1="52.9996" x2="54.549" y2="46.6724" gradientUnits="userSpaceOnUse">
<stop stop-color="#373282"/>
<stop offset="1" stop-color="#2E419B"/>
</linearGradient>
<linearGradient id="paint12_linear_531_4927" x1="86.9353" y1="5.85172" x2="83.567" y2="9.54269" gradientUnits="userSpaceOnUse">
<stop stop-color="#373282"/>
<stop offset="0.44" stop-color="#323A8F"/>
<stop offset="1" stop-color="#2E419B"/>
</linearGradient>
<linearGradient id="paint13_linear_531_4927" x1="78.0042" y1="6.34558" x2="74.6358" y2="10.0366" gradientUnits="userSpaceOnUse">
<stop stop-color="#373282"/>
<stop offset="0.44" stop-color="#323A8F"/>
<stop offset="1" stop-color="#2E419B"/>
</linearGradient>
<linearGradient id="paint14_linear_531_4927" x1="23.6918" y1="59.6754" x2="21.4389" y2="62.1432" gradientUnits="userSpaceOnUse">
<stop stop-color="#373282"/>
<stop offset="0.44" stop-color="#323A8F"/>
<stop offset="1" stop-color="#2E419B"/>
</linearGradient>
<linearGradient id="paint15_linear_531_4927" x1="17.7157" y1="60.0267" x2="15.4632" y2="62.4949" gradientUnits="userSpaceOnUse">
<stop stop-color="#373282"/>
<stop offset="0.44" stop-color="#323A8F"/>
<stop offset="1" stop-color="#2E419B"/>
</linearGradient>
<clipPath id="clip0_531_4927">
<rect width="115" height="75" fill="white" transform="translate(0.5)"/>
</clipPath>
</defs>
</svg>
