<svg width="140" height="128" viewBox="0 0 140 128" fill="none" xmlns="http://www.w3.org/2000/svg">
<g opacity="0.5">
<path d="M66.3643 62.5567C66.2933 62.5567 66.2242 62.5331 66.1672 62.4893C65.7163 62.1442 65.2727 61.7823 64.8486 61.4135C64.8152 61.3845 64.7876 61.349 64.7675 61.309C64.7474 61.269 64.7351 61.2253 64.7313 61.1804C64.7275 61.1355 64.7324 61.0902 64.7455 61.0472C64.7587 61.0042 64.7799 60.9643 64.808 60.9298C64.836 60.8953 64.8704 60.8668 64.9091 60.8461C64.9479 60.8253 64.9901 60.8126 65.0336 60.8088C65.077 60.8049 65.1208 60.81 65.1624 60.8236C65.2039 60.8373 65.2425 60.8593 65.2758 60.8884C65.6894 61.248 66.1222 61.6011 66.562 61.9378C66.6182 61.9807 66.6598 62.0409 66.6809 62.1098C66.702 62.1786 66.7016 62.2526 66.6797 62.3212C66.6578 62.3897 66.6155 62.4494 66.5589 62.4917C66.5023 62.534 66.4342 62.5567 66.3643 62.5567ZM119.228 127.758C119.224 127.758 119.22 127.758 119.216 127.758C119.008 127.75 118.798 127.74 118.59 127.729C117.676 127.679 116.755 127.589 115.851 127.463C115.808 127.457 115.766 127.442 115.729 127.419C115.691 127.397 115.658 127.366 115.631 127.331C115.605 127.295 115.586 127.254 115.575 127.21C115.563 127.167 115.561 127.121 115.567 127.077C115.572 127.032 115.587 126.989 115.609 126.95C115.631 126.911 115.66 126.877 115.695 126.85C115.729 126.822 115.769 126.802 115.811 126.791C115.853 126.779 115.897 126.777 115.94 126.783C116.826 126.907 117.729 126.995 118.625 127.044C118.829 127.055 119.036 127.064 119.24 127.072C119.327 127.075 119.409 127.114 119.469 127.179C119.529 127.244 119.562 127.331 119.56 127.421C119.559 127.511 119.523 127.597 119.461 127.66C119.399 127.723 119.315 127.758 119.228 127.758ZM123.685 127.663C123.599 127.663 123.517 127.629 123.455 127.567C123.393 127.505 123.357 127.421 123.354 127.333C123.351 127.244 123.381 127.157 123.438 127.091C123.496 127.025 123.575 126.984 123.661 126.978C124.735 126.895 125.846 126.766 126.961 126.596C127.048 126.583 127.137 126.606 127.208 126.66C127.278 126.714 127.325 126.795 127.338 126.886C127.351 126.976 127.329 127.067 127.276 127.14C127.224 127.213 127.145 127.262 127.058 127.275C125.927 127.448 124.8 127.578 123.71 127.662C123.702 127.663 123.694 127.663 123.685 127.663ZM111.53 126.536C111.499 126.536 111.469 126.531 111.44 126.523C110.354 126.209 109.285 125.832 108.24 125.395C108.199 125.378 108.163 125.353 108.132 125.321C108.101 125.29 108.076 125.252 108.059 125.21C108.025 125.127 108.024 125.032 108.057 124.948C108.09 124.864 108.154 124.796 108.235 124.761C108.316 124.725 108.408 124.725 108.489 124.759C109.512 125.186 110.557 125.555 111.619 125.862C111.696 125.884 111.763 125.935 111.807 126.004C111.851 126.073 111.869 126.157 111.858 126.239C111.847 126.321 111.808 126.396 111.748 126.451C111.687 126.505 111.61 126.536 111.53 126.536ZM131.39 126.416C131.309 126.416 131.23 126.385 131.169 126.329C131.109 126.273 131.07 126.196 131.061 126.112C131.052 126.028 131.073 125.944 131.12 125.875C131.167 125.806 131.237 125.758 131.316 125.739C132.359 125.49 133.443 125.201 134.54 124.88C134.624 124.855 134.715 124.866 134.792 124.911C134.868 124.955 134.925 125.029 134.949 125.117C134.973 125.204 134.962 125.298 134.92 125.377C134.877 125.457 134.805 125.515 134.721 125.54C133.614 125.864 132.518 126.156 131.465 126.408C131.441 126.413 131.416 126.416 131.39 126.416ZM104.384 123.349C104.323 123.349 104.263 123.332 104.211 123.299C103.247 122.688 102.324 122.009 101.451 121.267C101.417 121.238 101.389 121.203 101.368 121.163C101.348 121.124 101.335 121.08 101.331 121.035C101.327 120.99 101.331 120.945 101.344 120.902C101.357 120.859 101.377 120.819 101.405 120.784C101.433 120.749 101.467 120.72 101.505 120.699C101.544 120.678 101.586 120.665 101.63 120.66C101.673 120.656 101.717 120.661 101.758 120.674C101.8 120.687 101.839 120.709 101.873 120.737C102.723 121.459 103.62 122.12 104.558 122.714C104.62 122.753 104.667 122.812 104.694 122.881C104.72 122.951 104.723 123.028 104.704 123.1C104.684 123.172 104.642 123.235 104.584 123.28C104.527 123.325 104.456 123.349 104.384 123.349ZM98.5239 118.079C98.4742 118.079 98.4251 118.067 98.3803 118.045C98.3355 118.023 98.2961 117.991 98.265 117.951C97.5552 117.035 96.923 116.057 96.3754 115.029C96.3544 114.99 96.341 114.947 96.3362 114.902C96.3314 114.857 96.3351 114.812 96.3472 114.768C96.3593 114.725 96.3795 114.685 96.4067 114.65C96.4339 114.614 96.4675 114.585 96.5057 114.563C96.5439 114.541 96.5858 114.528 96.6291 114.523C96.6724 114.518 96.7163 114.522 96.7581 114.534C96.8 114.547 96.8391 114.567 96.8731 114.596C96.9072 114.624 96.9355 114.658 96.9566 114.698C97.4857 115.691 98.0966 116.636 98.7824 117.521C98.8216 117.571 98.8461 117.632 98.8533 117.696C98.8605 117.761 98.85 117.826 98.8229 117.884C98.7959 117.942 98.7535 117.992 98.7006 118.026C98.6477 118.061 98.5864 118.079 98.5239 118.079ZM94.9597 110.955C94.8878 110.955 94.818 110.931 94.7605 110.886C94.7031 110.842 94.6612 110.779 94.6412 110.708C94.3239 109.581 94.0996 108.429 93.9707 107.263C93.9608 107.173 93.986 107.082 94.0409 107.011C94.0957 106.94 94.1756 106.894 94.2631 106.884C94.3505 106.873 94.4383 106.9 94.5072 106.956C94.576 107.013 94.6203 107.096 94.6302 107.186C94.7549 108.313 94.9717 109.427 95.2785 110.516C95.2928 110.567 95.2955 110.621 95.2862 110.674C95.2769 110.726 95.256 110.775 95.2251 110.818C95.1941 110.861 95.1541 110.895 95.108 110.919C95.062 110.943 95.0112 110.955 94.9597 110.955ZM94.3382 102.968C94.2909 102.967 94.244 102.957 94.2009 102.937C94.1578 102.917 94.1194 102.887 94.0882 102.85C94.057 102.813 94.0338 102.77 94.0201 102.723C94.0065 102.676 94.0027 102.627 94.009 102.578C94.1603 101.411 94.429 100.263 94.8105 99.1528C94.8401 99.0671 94.9014 98.9971 94.981 98.9581C95.0605 98.9192 95.1518 98.9145 95.2346 98.9452C95.3175 98.9758 95.3852 99.0392 95.4229 99.1215C95.4605 99.2037 95.465 99.2981 95.4354 99.3837C95.0695 100.449 94.8119 101.55 94.6666 102.67C94.6558 102.753 94.6166 102.828 94.5563 102.883C94.4959 102.937 94.4184 102.967 94.3382 102.968ZM97.2183 95.5602C97.157 95.5601 97.0969 95.5425 97.0446 95.5092C96.9924 95.476 96.9501 95.4285 96.9225 95.3719C96.8948 95.3153 96.8828 95.252 96.8879 95.1888C96.8929 95.1256 96.9148 95.0651 96.9511 95.014C97.6255 94.0707 98.3786 93.1904 99.2017 92.3832C99.2332 92.352 99.2703 92.3275 99.3109 92.3111C99.3515 92.2948 99.3948 92.2868 99.4384 92.2878C99.482 92.2888 99.525 92.2986 99.5649 92.3167C99.6048 92.3349 99.6409 92.361 99.671 92.3935C99.7012 92.4261 99.7248 92.4644 99.7406 92.5064C99.7564 92.5485 99.7641 92.5933 99.7631 92.6383C99.7622 92.6834 99.7527 92.7278 99.7351 92.7691C99.7175 92.8103 99.6923 92.8476 99.6608 92.8788C98.8655 93.6586 98.1378 94.5089 97.486 95.4201C97.4552 95.4636 97.4149 95.4989 97.3683 95.5233C97.3218 95.5476 97.2704 95.5602 97.2183 95.5602ZM102.89 90.0673C102.82 90.0674 102.751 90.0443 102.694 90.0014C102.637 89.9585 102.595 89.8979 102.574 89.8286C102.552 89.7593 102.553 89.6847 102.575 89.6156C102.597 89.5465 102.64 89.4866 102.698 89.4444C103.485 88.8662 104.347 88.2701 105.492 87.5117C105.529 87.4874 105.57 87.4708 105.613 87.4629C105.656 87.455 105.7 87.4558 105.742 87.4655C105.785 87.4752 105.825 87.4934 105.861 87.5191C105.896 87.5449 105.927 87.5777 105.951 87.6156C105.974 87.6536 105.99 87.6959 105.998 87.7403C106.005 87.7847 106.005 87.8301 105.995 87.8741C105.986 87.9182 105.968 87.9598 105.943 87.9968C105.918 88.0338 105.887 88.0653 105.85 88.0896C104.714 88.8419 103.86 89.4323 103.082 90.0039C103.026 90.0452 102.959 90.0674 102.89 90.0673ZM109.435 85.6648C109.364 85.6648 109.294 85.641 109.237 85.5968C109.179 85.5526 109.137 85.4905 109.117 85.4196C109.096 85.3487 109.099 85.2729 109.123 85.2035C109.148 85.134 109.194 85.0747 109.253 85.0343C110.33 84.3079 111.199 83.6867 111.989 83.0793C112.024 83.0524 112.064 83.0329 112.106 83.0219C112.148 83.0109 112.192 83.0086 112.235 83.0152C112.278 83.0217 112.32 83.037 112.357 83.0601C112.394 83.0832 112.427 83.1137 112.453 83.1499C112.479 83.186 112.498 83.2271 112.509 83.2708C112.519 83.3145 112.521 83.3599 112.515 83.4045C112.509 83.4491 112.494 83.4919 112.472 83.5306C112.449 83.5693 112.42 83.603 112.385 83.6299C111.584 84.2459 110.704 84.8748 109.616 85.6089C109.562 85.6454 109.499 85.6648 109.435 85.6648ZM115.56 80.6899C115.495 80.6899 115.431 80.67 115.376 80.6327C115.322 80.5955 115.28 80.5424 115.254 80.4803C115.229 80.4181 115.222 80.3496 115.234 80.2833C115.246 80.217 115.277 80.1559 115.322 80.1075C115.634 79.7762 115.933 79.4365 116.212 79.098C116.637 78.5836 117.033 78.0437 117.396 77.4811C117.421 77.4436 117.452 77.4114 117.488 77.3863C117.524 77.3612 117.565 77.3437 117.607 77.3348C117.65 77.3259 117.694 77.3258 117.737 77.3346C117.78 77.3433 117.82 77.3606 117.856 77.3856C117.893 77.4105 117.924 77.4426 117.948 77.4801C117.972 77.5175 117.989 77.5595 117.998 77.6037C118.007 77.6478 118.007 77.6933 117.998 77.7375C117.99 77.7817 117.973 77.8238 117.949 77.8613C117.571 78.4465 117.16 79.0081 116.717 79.5431C116.429 79.8931 116.12 80.2439 115.798 80.586C115.767 80.619 115.73 80.6451 115.689 80.6629C115.648 80.6808 115.604 80.69 115.56 80.6899ZM119.501 73.8327C119.451 73.8327 119.401 73.8208 119.356 73.7981C119.311 73.7754 119.271 73.7424 119.24 73.7015C119.209 73.6606 119.187 73.613 119.177 73.5622C119.166 73.5114 119.167 73.4587 119.179 73.4082C119.278 72.989 119.351 72.5636 119.399 72.1348C119.472 71.4572 119.471 70.7732 119.396 70.0959C119.391 70.0511 119.394 70.0057 119.406 69.9623C119.418 69.9189 119.438 69.8784 119.465 69.8431C119.492 69.8077 119.526 69.7782 119.564 69.7563C119.602 69.7343 119.644 69.7204 119.687 69.7152C119.731 69.71 119.774 69.7137 119.816 69.7261C119.858 69.7384 119.897 69.7592 119.932 69.7873C119.966 69.8153 119.994 69.85 120.015 69.8895C120.037 69.9289 120.05 69.9722 120.055 70.017C120.137 70.7462 120.138 71.4825 120.058 72.2119C120.008 72.6695 119.929 73.1234 119.823 73.5708C119.806 73.6454 119.764 73.7118 119.706 73.7592C119.648 73.8067 119.576 73.8326 119.501 73.8327ZM87.2266 69.1051C86.5255 69.1051 85.816 69.0864 85.1175 69.0496C85.0297 69.0448 84.9473 69.0042 84.8885 68.9367C84.8296 68.8691 84.7991 68.7802 84.8035 68.6895C84.808 68.5987 84.8472 68.5134 84.9123 68.4525C84.9775 68.3915 85.0635 68.3597 85.1513 68.3642C85.8385 68.4005 86.5368 68.4188 87.2266 68.4188H87.23C87.6403 68.4188 88.0571 68.4124 88.4691 68.3995C88.5126 68.3982 88.556 68.4057 88.5968 68.4217C88.6375 68.4377 88.6748 68.4618 88.7066 68.4927C88.7383 68.5235 88.7638 68.5606 88.7817 68.6017C88.7996 68.6428 88.8095 68.6871 88.8108 68.7321C88.8121 68.7772 88.8048 68.822 88.7893 68.8642C88.7739 68.9063 88.7505 68.9449 88.7207 68.9777C88.6908 69.0105 88.655 69.0369 88.6152 69.0554C88.5755 69.0739 88.5326 69.0841 88.4891 69.0854C88.0705 69.0985 87.6469 69.1051 87.23 69.1051H87.2266ZM92.9217 68.6973C92.8377 68.6972 92.7569 68.6642 92.6955 68.6049C92.6342 68.5456 92.5968 68.4644 92.5911 68.3778C92.5853 68.2911 92.6115 68.2054 92.6644 68.138C92.7174 68.0705 92.793 68.0264 92.8762 68.0143C93.9751 67.8556 95.0728 67.6481 96.139 67.3979C96.1815 67.3879 96.2255 67.3866 96.2685 67.3942C96.3115 67.4017 96.3526 67.418 96.3896 67.442C96.4265 67.466 96.4584 67.4973 96.4837 67.5341C96.5089 67.5709 96.5268 67.6125 96.5364 67.6565C96.5461 67.7004 96.5473 67.7459 96.5399 67.7904C96.5325 67.8348 96.5168 67.8773 96.4935 67.9155C96.4702 67.9536 96.4399 67.9866 96.4043 68.0127C96.3687 68.0387 96.3285 68.0572 96.2859 68.0671C95.2016 68.3217 94.0853 68.5325 92.968 68.694C92.9527 68.6962 92.9372 68.6973 92.9217 68.6973ZM80.7011 68.5618C80.683 68.5617 80.665 68.5602 80.6471 68.5572C79.5308 68.3684 78.4195 68.1285 77.3444 67.8444C77.3022 67.8332 77.2625 67.8136 77.2276 67.7866C77.1928 67.7595 77.1634 67.7257 77.1412 67.6869C77.1189 67.6481 77.1043 67.6052 77.0981 67.5606C77.0919 67.516 77.0943 67.4706 77.1051 67.4269C77.1159 67.3833 77.1349 67.3422 77.161 67.3062C77.1872 67.2701 77.2199 67.2397 77.2574 67.2168C77.2949 67.1938 77.3364 67.1787 77.3795 67.1723C77.4227 67.1659 77.4666 67.1683 77.5088 67.1795C78.5651 67.4587 79.657 67.6944 80.7543 67.88C80.8365 67.8939 80.9107 67.9393 80.962 68.0071C81.0134 68.075 81.0381 68.1603 81.0314 68.2462C81.0247 68.3321 80.987 68.4122 80.9258 68.4707C80.8646 68.5291 80.7844 68.5616 80.7011 68.5618ZM100.494 66.7898C100.416 66.7898 100.34 66.7613 100.28 66.7092C100.221 66.6572 100.18 66.585 100.167 66.5054C100.154 66.4257 100.168 66.3438 100.207 66.2739C100.247 66.2041 100.308 66.1508 100.382 66.1236C100.447 66.0993 100.513 66.075 100.578 66.0504C101.454 65.7196 102.337 65.3442 103.19 64.9811L103.479 64.8584C103.561 64.8239 103.652 64.8243 103.733 64.8594C103.814 64.8945 103.878 64.9614 103.912 65.0455C103.945 65.1296 103.945 65.224 103.911 65.3079C103.877 65.3919 103.813 65.4585 103.731 65.4931L103.443 65.6158C102.583 65.9814 101.694 66.3595 100.806 66.6949C100.739 66.72 100.673 66.7449 100.606 66.7696C100.57 66.783 100.532 66.7898 100.494 66.7898ZM73.185 66.4368C73.1432 66.4368 73.1017 66.4286 73.0629 66.4126C72.015 65.9836 70.9895 65.4984 69.9905 64.9588C69.9519 64.9379 69.9177 64.9093 69.8897 64.8747C69.8618 64.8401 69.8407 64.8002 69.8277 64.7572C69.8147 64.7142 69.81 64.669 69.8139 64.6241C69.8178 64.5792 69.8303 64.5355 69.8505 64.4956C69.8707 64.4557 69.8983 64.4203 69.9318 64.3914C69.9652 64.3625 70.0038 64.3408 70.0454 64.3273C70.087 64.3139 70.1308 64.309 70.1742 64.313C70.2176 64.3171 70.2598 64.3299 70.2984 64.3508C71.2767 64.8793 72.2811 65.3545 73.3074 65.7746C73.3792 65.8041 73.4388 65.8585 73.476 65.9285C73.5132 65.9984 73.5256 66.0796 73.5111 66.1581C73.4966 66.2365 73.4561 66.3072 73.3966 66.3581C73.3371 66.409 73.2623 66.4368 73.185 66.4368ZM118.088 66.1729C118.038 66.173 117.989 66.1615 117.944 66.1391C117.899 66.1168 117.859 66.0842 117.828 66.0439C117.584 65.7271 117.312 65.4345 117.016 65.1698C116.505 64.7189 115.933 64.3499 115.316 64.0753C115.276 64.0573 115.24 64.0314 115.21 63.9989C115.18 63.9665 115.156 63.9282 115.14 63.8862C115.124 63.8443 115.116 63.7995 115.117 63.7544C115.118 63.7093 115.127 63.6648 115.144 63.6235C115.162 63.5821 115.187 63.5447 115.218 63.5134C115.25 63.4821 115.287 63.4575 115.327 63.4411C115.368 63.4246 115.411 63.4166 115.455 63.4174C115.498 63.4183 115.542 63.428 115.581 63.4461C116.259 63.7483 116.888 64.1541 117.449 64.6499C117.776 64.9424 118.077 65.2657 118.347 65.6158C118.386 65.6662 118.41 65.7271 118.417 65.7912C118.424 65.8554 118.414 65.9203 118.387 65.9785C118.359 66.0367 118.317 66.0859 118.264 66.1202C118.211 66.1546 118.15 66.1729 118.088 66.1729ZM107.795 63.9429C107.715 63.9428 107.637 63.9128 107.577 63.8583C107.516 63.8038 107.477 63.7286 107.466 63.6465C107.455 63.5644 107.473 63.4809 107.517 63.4116C107.561 63.3423 107.628 63.2917 107.705 63.2693C108.097 63.1555 108.484 63.0561 108.855 62.974C109.584 62.8121 110.325 62.7122 111.07 62.6752C111.113 62.6732 111.157 62.68 111.198 62.6953C111.239 62.7106 111.277 62.7341 111.309 62.7644C111.341 62.7948 111.367 62.8314 111.386 62.8722C111.404 62.9129 111.415 62.9571 111.417 63.0021C111.419 63.0471 111.412 63.0921 111.397 63.1345C111.382 63.1769 111.36 63.2158 111.33 63.2491C111.301 63.2824 111.266 63.3094 111.226 63.3285C111.187 63.3477 111.144 63.3586 111.101 63.3607C110.392 63.396 109.688 63.4911 108.994 63.6451C108.636 63.7242 108.263 63.82 107.885 63.93C107.855 63.9385 107.825 63.9428 107.795 63.9429ZM138.899 124.172C138.82 124.172 138.744 124.143 138.684 124.09C138.624 124.038 138.584 123.965 138.572 123.885C138.559 123.805 138.574 123.722 138.614 123.652C138.655 123.583 138.718 123.53 138.792 123.504C139.303 123.324 139.829 123.134 140.354 122.94C140.436 122.909 140.528 122.914 140.607 122.953C140.687 122.992 140.748 123.062 140.778 123.147C140.808 123.233 140.803 123.327 140.765 123.41C140.728 123.492 140.66 123.555 140.577 123.586C140.049 123.782 139.52 123.972 139.006 124.153C138.971 124.166 138.935 124.172 138.899 124.172ZM30.9547 41.8478C30.8736 41.8477 30.7954 41.8169 30.7348 41.7612C30.6741 41.7056 30.6353 41.6289 30.6256 41.5456C30.4913 40.4248 30.2865 39.3143 30.0126 38.221C30.0017 38.1773 29.9993 38.1319 30.0055 38.0872C30.0116 38.0426 30.0262 37.9997 30.0484 37.9609C30.0706 37.9221 30.1 37.8882 30.1349 37.8611C30.1698 37.8341 30.2095 37.8144 30.2517 37.8032C30.294 37.7921 30.3379 37.7896 30.3811 37.796C30.4242 37.8024 30.4657 37.8175 30.5032 37.8405C30.5407 37.8635 30.5735 37.8939 30.5996 37.93C30.6258 37.9661 30.6447 38.0072 30.6555 38.0509C30.9366 39.1732 31.1468 40.3132 31.2846 41.4637C31.2902 41.5119 31.2858 41.5608 31.2717 41.6071C31.2577 41.6534 31.2343 41.6962 31.2031 41.7324C31.172 41.7687 31.1337 41.7978 31.0909 41.8177C31.048 41.8376 31.0016 41.8478 30.9547 41.8478ZM28.9491 34.1374C28.8828 34.1375 28.818 34.1169 28.7631 34.0785C28.7081 34.04 28.6656 33.9855 28.6409 33.9218C28.2416 32.8905 27.7876 31.846 27.2916 30.8174C27.2524 30.736 27.2461 30.6418 27.274 30.5555C27.302 30.4693 27.3619 30.398 27.4406 30.3574C27.5194 30.3169 27.6104 30.3103 27.6939 30.3391C27.7773 30.3679 27.8463 30.4298 27.8856 30.5112C28.3896 31.5565 28.851 32.6181 29.2571 33.6667C29.2772 33.7187 29.2847 33.7751 29.2789 33.8309C29.2731 33.8866 29.2542 33.9401 29.2238 33.9865C29.1934 34.0329 29.1525 34.071 29.1046 34.0973C29.0567 34.1236 29.0034 34.1374 28.9491 34.1374ZM8.78437 31.6018C8.69802 31.6018 8.61509 31.5669 8.55321 31.5046C8.49133 31.4423 8.45536 31.3575 8.45296 31.2683C8.45055 31.179 8.48189 31.0923 8.54031 31.0266C8.59874 30.9608 8.67965 30.9212 8.76587 30.9162C9.84069 30.8529 10.9012 30.6311 11.9154 30.2575C11.9983 30.227 12.0895 30.2318 12.169 30.2709C12.2485 30.3099 12.3098 30.38 12.3393 30.4657C12.3688 30.5515 12.3641 30.6458 12.3264 30.728C12.2886 30.8102 12.2208 30.8735 12.1379 30.904C11.0642 31.2996 9.9414 31.5343 8.80346 31.6013C8.79707 31.6017 8.79069 31.6018 8.78437 31.6018ZM4.45331 30.8854C4.40872 30.8854 4.36459 30.8761 4.32358 30.858C3.20446 30.3658 2.27076 29.6569 1.54846 28.7511C1.49247 28.6809 1.46575 28.5905 1.47418 28.5C1.4826 28.4094 1.52549 28.326 1.59339 28.2681C1.6613 28.2102 1.74867 28.1826 1.83627 28.1913C1.92388 28.2 2.00455 28.2443 2.06054 28.3145C2.71441 29.1346 3.5632 29.7778 4.58337 30.2265C4.65379 30.2575 4.71169 30.3126 4.74727 30.3827C4.78284 30.4527 4.79392 30.5333 4.77862 30.6109C4.76332 30.6884 4.72258 30.7581 4.6633 30.8081C4.60402 30.8581 4.52984 30.8855 4.45331 30.8854ZM15.8206 28.6177C15.7522 28.6177 15.6855 28.596 15.6296 28.5553C15.5737 28.5147 15.5313 28.4572 15.5082 28.3907C15.485 28.3242 15.4823 28.252 15.5004 28.1838C15.5185 28.1157 15.5565 28.055 15.6092 28.01C16.4452 27.2891 17.2225 26.4986 17.9335 25.6463C17.9914 25.5777 18.0733 25.5358 18.1611 25.5296C18.2489 25.5235 18.3355 25.5537 18.4018 25.6136C18.468 25.6734 18.5086 25.7581 18.5145 25.8489C18.5205 25.9397 18.4913 26.0292 18.4334 26.0977C17.6987 26.9781 16.8955 27.7947 16.0317 28.5392C15.9723 28.59 15.8976 28.6178 15.8206 28.6177ZM92.104 27.2644C92.0994 27.2644 92.0947 27.2643 92.0899 27.2641C91.9621 27.2586 91.8331 27.2516 91.7065 27.2433C90.7098 27.177 89.7201 27.0262 88.7473 26.7925C88.7048 26.7823 88.6647 26.7636 88.6292 26.7374C88.5938 26.7112 88.5637 26.6781 88.5406 26.6398C88.5175 26.6016 88.502 26.559 88.4948 26.5146C88.4877 26.4701 88.489 26.4247 88.4989 26.3808C88.5087 26.3369 88.5268 26.2954 88.5521 26.2588C88.5775 26.2221 88.6096 26.1909 88.6465 26.1671C88.6835 26.1433 88.7247 26.1272 88.7677 26.1198C88.8106 26.1124 88.8546 26.1138 88.8971 26.124C89.8344 26.3492 90.788 26.4945 91.7484 26.5585C91.8703 26.5664 91.9945 26.5731 92.1177 26.5785C92.2044 26.5822 92.2862 26.621 92.3457 26.6864C92.4051 26.7518 92.4374 26.8386 92.4356 26.9284C92.4338 27.0181 92.3981 27.1035 92.3361 27.1663C92.2741 27.2292 92.1908 27.2644 92.104 27.2644ZM25.4134 27.0244C25.3574 27.0245 25.3024 27.01 25.2534 26.9821C25.2043 26.9543 25.1629 26.9141 25.1329 26.8652C24.5332 25.889 23.9018 24.9488 23.256 24.0705C23.2028 23.998 23.1795 23.9067 23.1914 23.8165C23.2033 23.7263 23.2493 23.6447 23.3194 23.5896C23.3894 23.5346 23.4778 23.5105 23.565 23.5228C23.6522 23.5351 23.7311 23.5827 23.7844 23.6551C24.4414 24.5487 25.0836 25.5049 25.6931 26.4973C25.725 26.5492 25.7428 26.6089 25.7447 26.6703C25.7466 26.7317 25.7325 26.7925 25.7039 26.8464C25.6753 26.9002 25.6333 26.9452 25.5822 26.9765C25.5311 27.0078 25.4728 27.0244 25.4134 27.0244ZM96.5019 26.8991C96.4195 26.899 96.3401 26.8672 96.2792 26.8099C96.2182 26.7526 96.18 26.674 96.172 26.5892C96.164 26.5044 96.1868 26.4196 96.236 26.3512C96.2851 26.2829 96.3571 26.2358 96.4379 26.2193C97.5065 25.9969 98.5583 25.6953 99.5851 25.3169C99.6262 25.3019 99.6697 25.2954 99.7133 25.2978C99.7568 25.3001 99.7994 25.3114 99.8387 25.3308C99.8781 25.3502 99.9133 25.3774 99.9424 25.4109C99.9716 25.4444 99.9941 25.4836 100.009 25.526C100.023 25.5685 100.029 25.6135 100.027 25.6585C100.025 25.7035 100.014 25.7476 99.9952 25.7883C99.9764 25.8289 99.9501 25.8654 99.9177 25.8955C99.8853 25.9256 99.8474 25.9489 99.8064 25.9639C98.7494 26.3533 97.6667 26.6636 96.5667 26.8925C96.5454 26.8969 96.5237 26.8991 96.5019 26.8991ZM84.6581 25.2848C84.6092 25.2848 84.5609 25.2735 84.5167 25.2519C83.5049 24.7544 82.5237 24.1932 81.5784 23.5714C81.5416 23.5473 81.5098 23.5159 81.4847 23.4791C81.4596 23.4423 81.4417 23.4007 81.4322 23.3567C81.4226 23.3127 81.4215 23.2673 81.429 23.2229C81.4364 23.1785 81.4522 23.136 81.4755 23.0979C81.4988 23.0599 81.5292 23.0269 81.5648 23.001C81.6004 22.975 81.6406 22.9566 81.6832 22.9467C81.7257 22.9368 81.7697 22.9357 81.8126 22.9434C81.8555 22.9511 81.8966 22.9674 81.9334 22.9915C82.8556 23.5982 83.8129 24.1458 84.7999 24.6313C84.8681 24.6646 84.9233 24.7209 84.9564 24.791C84.9895 24.861 84.9986 24.9407 84.9821 25.0168C84.9655 25.0928 84.9245 25.1608 84.8656 25.2096C84.8067 25.2583 84.7335 25.2848 84.6581 25.2848ZM0.333009 24.6545C0.246085 24.6545 0.162644 24.6192 0.100624 24.5562C0.0386036 24.4933 0.00295761 24.4076 0.00135029 24.3178C0.000459833 24.2675 9.21799e-06 24.2171 0 24.1667C0.00708168 23.0233 0.227424 21.8921 0.64895 20.835C0.665455 20.7933 0.689744 20.7554 0.720427 20.7234C0.751111 20.6914 0.787591 20.6659 0.827782 20.6485C0.867973 20.6311 0.91109 20.622 0.954669 20.6218C0.998249 20.6216 1.04144 20.6303 1.08177 20.6474C1.12211 20.6645 1.15879 20.6896 1.18974 20.7213C1.22069 20.753 1.24529 20.7908 1.26214 20.8323C1.27899 20.8739 1.28776 20.9184 1.28794 20.9635C1.28813 21.0086 1.27973 21.0532 1.26322 21.0949C0.874203 22.0695 0.670639 23.1124 0.663695 24.1667C0.663695 24.2128 0.664108 24.259 0.664934 24.3051C0.665743 24.3501 0.657963 24.3949 0.642036 24.4368C0.626109 24.4788 0.602346 24.5171 0.572108 24.5495C0.54187 24.5819 0.505749 24.6079 0.465803 24.6259C0.425857 24.6439 0.38287 24.6537 0.339298 24.6545C0.337191 24.6545 0.335083 24.6545 0.333009 24.6545ZM103.741 24.14C103.666 24.14 103.594 24.1143 103.536 24.0669C103.477 24.0195 103.436 23.9532 103.418 23.8787C103.401 23.8041 103.408 23.7255 103.438 23.6555C103.469 23.5855 103.521 23.5281 103.587 23.4926C104.51 22.9943 105.445 22.4414 106.446 21.8023C106.484 21.7786 106.525 21.7627 106.568 21.7555C106.611 21.7483 106.655 21.75 106.697 21.7603C106.74 21.7707 106.78 21.7896 106.815 21.816C106.85 21.8423 106.88 21.8756 106.903 21.914C106.926 21.9523 106.941 21.9949 106.948 22.0394C106.955 22.0839 106.954 22.1293 106.944 22.1732C106.934 22.217 106.915 22.2584 106.89 22.295C106.864 22.3315 106.832 22.3625 106.795 22.3862C105.78 23.034 104.831 23.5949 103.894 24.1009C103.847 24.1266 103.794 24.1399 103.741 24.14ZM20.8619 22.5769C20.8014 22.5769 20.7422 22.5598 20.6905 22.5274C20.6388 22.4951 20.5966 22.4488 20.5685 22.3935C20.5403 22.3382 20.5274 22.276 20.5309 22.2136C20.5345 22.1512 20.5544 22.0911 20.5886 22.0396C21.112 21.2514 21.6297 20.4379 22.1303 19.6512L22.4249 19.1885C22.4488 19.1507 22.4797 19.1182 22.5158 19.0928C22.5519 19.0674 22.5925 19.0496 22.6352 19.0404C22.678 19.0313 22.7221 19.0309 22.765 19.0394C22.8079 19.0479 22.8487 19.0651 22.8852 19.0899C22.9216 19.1147 22.953 19.1468 22.9774 19.1842C23.0019 19.2216 23.019 19.2636 23.0277 19.3079C23.0364 19.3521 23.0366 19.3977 23.0283 19.442C23.0199 19.4863 23.0032 19.5285 22.9791 19.5661L22.6848 20.0284C22.1823 20.8179 21.6629 21.6343 21.1358 22.428C21.1053 22.474 21.0644 22.5116 21.0166 22.5376C20.9689 22.5635 20.9158 22.577 20.8619 22.5769ZM78.1758 20.9392C78.0995 20.9392 78.0256 20.9121 77.9666 20.8622C77.1472 20.173 76.3224 19.4325 75.4452 18.5985C75.4131 18.568 75.3872 18.5312 75.3688 18.4904C75.3505 18.4495 75.3401 18.4053 75.3382 18.3603C75.3364 18.3153 75.3432 18.2703 75.3582 18.228C75.3731 18.1857 75.396 18.1468 75.4255 18.1136C75.455 18.0805 75.4905 18.0536 75.5301 18.0347C75.5696 18.0157 75.6124 18.0049 75.6559 18.0031C75.6995 18.0012 75.7429 18.0082 75.7839 18.0237C75.8248 18.0392 75.8624 18.0628 75.8944 18.0933C76.7617 18.9179 77.5765 19.6494 78.3854 20.3299C78.4386 20.3746 78.477 20.4353 78.4955 20.5035C78.514 20.5718 78.5116 20.6443 78.4886 20.711C78.4656 20.7778 78.4232 20.8356 78.3672 20.8765C78.3112 20.9173 78.2443 20.9392 78.1758 20.9392ZM20.6044 20.7698C20.5181 20.7699 20.4353 20.7351 20.3734 20.673C19.5935 19.8862 18.7561 19.1626 17.8688 18.5088C17.797 18.4562 17.7483 18.3763 17.7334 18.2867C17.7186 18.197 17.7388 18.1049 17.7896 18.0307C17.8404 17.9564 17.9176 17.906 18.0043 17.8906C18.091 17.8752 18.18 17.896 18.2519 17.9484C19.1672 18.6227 20.031 19.3689 20.8354 20.1803C20.8829 20.2279 20.9155 20.289 20.9292 20.3559C20.9428 20.4227 20.9368 20.4923 20.912 20.5556C20.8872 20.6189 20.8446 20.6731 20.7898 20.7113C20.735 20.7494 20.6705 20.7698 20.6044 20.7698ZM110.308 19.9076C110.238 19.9077 110.169 19.8845 110.112 19.8414C110.055 19.7983 110.013 19.7375 109.992 19.668C109.971 19.5984 109.971 19.5236 109.994 19.4545C110.016 19.3854 110.06 19.3255 110.118 19.2836C111.06 18.5995 111.988 17.9038 112.69 17.3742C112.725 17.3476 112.765 17.3285 112.807 17.3179C112.85 17.3072 112.894 17.3054 112.937 17.3123C112.98 17.3193 113.021 17.3349 113.058 17.3584C113.096 17.3819 113.128 17.4127 113.154 17.4491C113.179 17.4856 113.198 17.5269 113.208 17.5707C113.218 17.6145 113.22 17.6599 113.213 17.7045C113.207 17.749 113.191 17.7917 113.169 17.8302C113.146 17.8687 113.116 17.9021 113.081 17.9286C112.376 18.46 111.446 19.1581 110.499 19.8454C110.443 19.8859 110.377 19.9077 110.308 19.9076ZM3.60298 17.7099C3.53343 17.7099 3.46562 17.6874 3.40913 17.6454C3.35265 17.6034 3.31034 17.5442 3.28819 17.476C3.26604 17.4078 3.26516 17.3342 3.28568 17.2655C3.3062 17.1968 3.34708 17.1365 3.40254 17.0931C4.32078 16.3811 5.35309 15.8418 6.4522 15.5C6.49388 15.4868 6.53765 15.4822 6.58105 15.4865C6.62444 15.4908 6.6666 15.5039 6.7051 15.525C6.7436 15.5461 6.7777 15.5749 6.80545 15.6097C6.8332 15.6444 6.85406 15.6845 6.86682 15.7276C6.87959 15.7707 6.88402 15.8159 6.87986 15.8608C6.8757 15.9057 6.86304 15.9493 6.84259 15.9891C6.82213 16.0289 6.7943 16.0641 6.76067 16.0928C6.72704 16.1215 6.68828 16.143 6.64659 16.1562C5.6218 16.4745 4.65922 16.9769 3.80293 17.6404C3.74542 17.6855 3.67518 17.7099 3.60298 17.7099ZM14.1592 16.4446C14.1212 16.4446 14.0835 16.4379 14.0478 16.4247C13.974 16.3975 13.9 16.3709 13.8257 16.3449C12.8777 16.0143 11.8945 15.8032 10.8976 15.7162C10.8542 15.7124 10.8119 15.6998 10.7732 15.6791C10.7344 15.6584 10.7 15.6301 10.6719 15.5956C10.6151 15.5261 10.5874 15.4361 10.5948 15.3454C10.6022 15.2547 10.6442 15.1708 10.7114 15.1121C10.7787 15.0534 10.8657 15.0247 10.9534 15.0324C12.0037 15.124 13.0394 15.3464 14.0381 15.6948C14.116 15.722 14.1935 15.7498 14.2706 15.7783C14.3443 15.8054 14.4063 15.8586 14.4457 15.9284C14.4851 15.9983 14.4995 16.0803 14.4861 16.1599C14.4728 16.2396 14.4327 16.3119 14.3729 16.364C14.3131 16.4161 14.2374 16.4446 14.1592 16.4446ZM25.2098 15.9519C25.1486 15.9518 25.0886 15.9342 25.0364 15.9011C24.9842 15.8679 24.9419 15.8205 24.9142 15.7641C24.8865 15.7076 24.8744 15.6443 24.8793 15.5812C24.8843 15.5181 24.906 15.4576 24.9421 15.4064C25.6205 14.4452 26.3055 13.5258 26.978 12.6738C27.0336 12.6033 27.1141 12.5585 27.2016 12.5494C27.2892 12.5402 27.3767 12.5674 27.4449 12.6249C27.5131 12.6824 27.5564 12.7656 27.5652 12.8562C27.5741 12.9467 27.5478 13.0372 27.4922 13.1077C26.8272 13.9502 26.1496 14.8597 25.4782 15.811C25.4474 15.8547 25.407 15.8902 25.3604 15.9147C25.3137 15.9392 25.2622 15.952 25.2098 15.9519ZM72.4955 15.501C72.4515 15.501 72.4079 15.492 72.3673 15.4744C72.3267 15.4569 72.29 15.4311 72.2591 15.3987C72.0074 15.1346 71.7513 14.864 71.4763 14.5715L71.3461 14.4329C70.887 13.9446 70.4123 13.4396 69.9404 12.9417C69.9099 12.9095 69.8858 12.8715 69.8695 12.8297C69.8532 12.7878 69.845 12.7431 69.8454 12.6981C69.8459 12.653 69.8549 12.6084 69.872 12.567C69.889 12.5255 69.9139 12.4879 69.945 12.4564C69.9761 12.4248 70.013 12.3999 70.0534 12.3831C70.0939 12.3663 70.1371 12.3579 70.1807 12.3583C70.2243 12.3588 70.2674 12.3681 70.3075 12.3858C70.3476 12.4035 70.3839 12.4292 70.4144 12.4614C70.8873 12.9603 71.3624 13.4658 71.8219 13.9546L71.9522 14.0931C72.2261 14.3845 72.4812 14.654 72.7318 14.917C72.7778 14.9652 72.8089 15.0263 72.8213 15.0927C72.8337 15.1592 72.8269 15.2279 72.8016 15.2903C72.7764 15.3527 72.7338 15.406 72.6793 15.4435C72.6249 15.481 72.5609 15.501 72.4955 15.501ZM67.0318 9.82573C66.9469 9.82584 66.8651 9.79215 66.8036 9.73165C65.938 8.88336 65.1361 8.13585 64.3522 7.44644C64.319 7.41725 64.2917 7.38158 64.2718 7.34147C64.252 7.30137 64.2399 7.25761 64.2364 7.21269C64.2293 7.12199 64.2574 7.03209 64.3144 6.96276C64.3714 6.89344 64.4527 6.85038 64.5405 6.84305C64.6282 6.83572 64.7151 6.86473 64.7822 6.92369C65.5753 7.62116 66.3858 8.37671 67.2602 9.23358C67.3084 9.28081 67.3417 9.3419 67.356 9.40895C67.3702 9.476 67.3647 9.54592 67.3401 9.60968C67.3155 9.67345 67.273 9.72812 67.218 9.76663C67.1631 9.80515 67.0982 9.82573 67.0318 9.82573ZM30.1815 9.82285C30.116 9.82285 30.0521 9.80286 29.9976 9.76539C29.9432 9.72792 29.9006 9.67465 29.8754 9.61226C29.8501 9.54988 29.8432 9.48116 29.8556 9.41475C29.868 9.34834 29.8991 9.28719 29.945 9.23899C30.7458 8.39794 31.5686 7.60348 32.3905 6.87774C32.4575 6.81876 32.5443 6.78967 32.632 6.79685C32.7197 6.80404 32.801 6.84692 32.8581 6.91607C32.9152 6.98522 32.9435 7.07499 32.9366 7.16565C32.9298 7.25631 32.8884 7.34045 32.8215 7.39958C32.0141 8.11252 31.2054 8.89338 30.4179 9.72045C30.3871 9.75292 30.3503 9.77871 30.3097 9.79629C30.2691 9.81388 30.2255 9.8229 30.1815 9.82285ZM36.1517 4.75111C36.0799 4.75117 36.01 4.72714 35.9525 4.68264C35.8951 4.63813 35.8531 4.57554 35.8329 4.50427C35.8128 4.433 35.8155 4.35689 35.8407 4.28737C35.866 4.21785 35.9123 4.15866 35.9729 4.1187C36.9166 3.49553 37.8956 2.93127 38.9045 2.42893C38.9438 2.40935 38.9865 2.39797 39.03 2.39544C39.0735 2.39291 39.1171 2.39927 39.1583 2.41417C39.1995 2.42907 39.2374 2.45221 39.2699 2.48227C39.3024 2.51233 39.3288 2.54872 39.3477 2.58936C39.3666 2.63 39.3776 2.67409 39.38 2.71912C39.3824 2.76414 39.3762 2.80921 39.3618 2.85175C39.3473 2.8943 39.3249 2.93348 39.2958 2.96705C39.2667 3.00063 39.2314 3.02795 39.1921 3.04744C38.2071 3.53786 37.2514 4.08875 36.33 4.69717C36.2768 4.7324 36.2149 4.75112 36.1517 4.75111ZM61.0545 4.74986C60.9885 4.7499 60.924 4.72948 60.8693 4.69125C59.9644 4.05748 59.0242 3.47927 58.0537 2.95962C58.0149 2.93903 57.9804 2.91075 57.9522 2.87638C57.924 2.84201 57.9027 2.80223 57.8893 2.75932C57.876 2.71641 57.871 2.67121 57.8746 2.62629C57.8781 2.58137 57.8902 2.53762 57.9102 2.49754C57.9301 2.45746 57.9575 2.42183 57.9907 2.39268C58.024 2.36354 58.0624 2.34145 58.1039 2.32769C58.1455 2.31393 58.1892 2.30875 58.2326 2.31246C58.276 2.31618 58.3184 2.3287 58.3571 2.34932C59.351 2.88132 60.3137 3.47329 61.2403 4.12219C61.2992 4.16329 61.3439 4.22288 61.3676 4.29218C61.3913 4.36149 61.3929 4.43685 61.3721 4.50715C61.3513 4.57746 61.3092 4.63899 61.252 4.68269C61.1948 4.72638 61.1256 4.74993 61.0545 4.74986ZM43.1797 1.45934C43.0996 1.45928 43.0222 1.42924 42.9618 1.37477C42.9014 1.3203 42.8621 1.24507 42.8512 1.16299C42.8403 1.0809 42.8584 0.997497 42.9023 0.928174C42.9462 0.858851 43.0129 0.808292 43.09 0.78583C44.1707 0.470152 45.2722 0.236682 46.3858 0.0872905C46.429 0.0815664 46.4729 0.0847002 46.5149 0.0965158C46.557 0.108331 46.5964 0.128597 46.6309 0.156154C46.6653 0.18371 46.6942 0.21802 46.7159 0.257122C46.7375 0.296224 46.7515 0.339354 46.7571 0.384048C46.7626 0.428743 46.7596 0.474127 46.7482 0.51761C46.7367 0.561094 46.7171 0.601824 46.6905 0.637476C46.6638 0.673127 46.6306 0.703001 46.5928 0.725393C46.555 0.747786 46.5133 0.762256 46.4701 0.76798C45.3887 0.913098 44.3191 1.13986 43.2698 1.44644C43.2405 1.45499 43.2102 1.45933 43.1797 1.45934ZM54.1005 1.31604C54.0704 1.31602 54.0403 1.31176 54.0113 1.30337C53.4212 1.13336 52.8206 0.99207 52.2261 0.883448C51.7617 0.798559 51.2856 0.731713 50.8109 0.684688C50.7233 0.676008 50.6426 0.631699 50.5866 0.561506C50.5306 0.491314 50.5038 0.400988 50.5122 0.3104C50.5206 0.219812 50.5634 0.136385 50.6313 0.0784667C50.6992 0.0205488 50.7866 -0.00711421 50.8742 0.00156514C51.3663 0.0502889 51.86 0.119652 52.3416 0.207669C52.9571 0.320145 53.5788 0.466379 54.1894 0.6423C54.2667 0.664577 54.3335 0.715031 54.3776 0.784329C54.4217 0.853628 54.44 0.93708 54.4291 1.01925C54.4183 1.10143 54.379 1.17676 54.3186 1.23132C54.2582 1.28588 54.1807 1.31597 54.1005 1.31604Z" fill="#749DD3"/>
<path d="M57.2121 23.7487L36.7475 31.3804L34.7531 37.6922C34.481 38.4317 31.4854 49.2543 32.3059 49.5772L50.3737 45.279L60.0584 59.3261C60.8789 59.649 66.0484 50.5301 66.3205 49.7907L69.4627 44.2365L59.0633 24.4771C58.8596 24.1793 58.5747 23.951 58.245 23.8212C57.9153 23.6915 57.5557 23.6662 57.2121 23.7487Z" fill="#224797"/>
<path d="M67.4604 33.4579C68.3848 33.8216 69.3809 33.4443 69.9064 32.6523L70.1142 32.7341L59.4181 61.7966L33.0122 51.4064L43.7083 22.3439L43.8511 22.4001C43.7254 23.3509 44.2219 24.314 45.1443 24.6769C46.054 25.0349 47.0332 24.6751 47.565 23.9086C47.4605 24.8447 47.9558 25.7832 48.8636 26.1404C49.7733 26.4984 50.7526 26.1386 51.2843 25.3721C51.1799 26.3082 51.6752 27.2467 52.583 27.6039C53.4927 27.9619 54.472 27.6021 55.0037 26.8356C54.8992 27.7717 55.3945 28.7102 56.3024 29.0674C57.2121 29.4254 58.1913 29.0656 58.723 28.2991C58.6186 29.2352 59.1139 30.1737 60.0217 30.5309C60.9314 30.8889 61.9107 30.5291 62.4424 29.7626C62.338 30.6987 62.8333 31.6372 63.7411 31.9944C64.6508 32.3524 65.6301 31.9926 66.1618 31.2261C66.0573 32.1622 66.5526 33.1007 67.4604 33.4579Z" fill="#FAFAFC" stroke="#C7D7FF"/>
<path d="M49.6212 48.3073L59.8493 43.6646C62.5355 42.4453 65.7431 42.4069 68.6709 43.5589C69.3584 43.8294 69.7496 44.5005 69.5445 45.0577L65.7483 55.3726L62.0971 65.2931C61.892 65.8503 60.6511 66.3306 59.9635 66.06L55.735 64.3962L49.1585 49.5645C49.1049 49.4512 49.0744 49.3277 49.0688 49.2017C49.0632 49.0758 49.0827 48.95 49.1261 48.8321C49.1695 48.7142 49.2358 48.6068 49.321 48.5166C49.4061 48.4263 49.5083 48.355 49.6212 48.3073Z" fill="#556DC2"/>
<path d="M48.9941 48.044L44.3387 37.545C43.1161 34.7877 40.7447 32.554 37.8169 31.402C37.1293 31.1314 36.4057 31.3638 36.2006 31.921L32.4043 42.2359L28.7085 52.2778C28.5035 52.835 29.0297 53.8875 29.7173 54.158L34.0824 55.8598L48.5314 49.3012C48.6443 49.2534 48.7465 49.1822 48.8316 49.0919C48.9168 49.0016 48.9831 48.8942 49.0265 48.7763C49.0699 48.6585 49.0894 48.5327 49.0838 48.4067C49.0782 48.2807 49.0477 48.1572 48.9941 48.044Z" fill="#556DC2"/>
<path d="M63.6214 61.1511L62.0153 65.5151C61.7752 66.1673 60.9154 66.4343 60.0951 66.1115L29.7172 54.1584C28.8969 53.8356 28.4263 53.0452 28.6663 52.3929L30.2724 48.029L49.6914 44.2536C50.0158 44.1953 50.3493 44.2253 50.6591 44.3406C51.0069 44.4627 51.3136 44.6853 51.5428 44.982L63.6214 61.1511Z" fill="#3D5AAC"/>
<path d="M30.9423 46.2087L47.3343 44.3008L47.502 44.6788L30.2725 48.0286L30.9423 46.2087Z" fill="#556DC2"/>
<path d="M64.2912 59.331L53.2729 46.6377L52.9047 46.8048L63.6214 61.1509L64.2912 59.331Z" fill="#556DC2"/>
<path d="M125.644 4.14258L122.866 17.3712L117.012 13.0866L125.644 4.14258Z" fill="#C7D7FF"/>
<path d="M125.644 4.14258L114.714 12.018L109.338 10.6863L125.644 4.14258Z" fill="#C7D7FF"/>
<path d="M125.644 4.14258L117.012 13.0866L115.529 16.9391L114.714 12.018L125.644 4.14258Z" fill="white"/>
<path opacity="0.1" d="M125.644 4.14258L117.012 13.0866L115.529 16.9391L114.714 12.018L125.644 4.14258Z" fill="#C7D7FF"/>
</g>
</svg>
